<?xml version="1.0" encoding="UTF-8"?>
<svg id="Camada_1" xmlns="http://www.w3.org/2000/svg" version="1.1" viewBox="0 0 8192 6054.6">
  <!-- Generator: Adobe Illustrator 30.3.0, SVG Export Plug-In . SVG Version: 2.1.3 Build 182)  -->
  <defs>
    <style>
      .st0 {
        fill: #bc9c08;
        opacity: .7;
      }

      .st1 {
        fill: #bc9c00;
      }
    </style>
  </defs>
  <path class="st1" d="M2953.6,3927.2l-3.9,181.3c-3.3,4.2-6.6,8.3-9.9,12.5l-4-188.8-144.2-91.8-246.8-92.7-6.9-2.5-3.3-7.4-68.8-155.5-2.9-6.5,2-7.8,55.7-218.8-272.1-192.3-13.6-9.7-.4-18.2-4.1-191.4-133.8-38.7-137.5,268.5,76.3,178.9,6.6,15.4-5.9,14.8-58.3,147.3,122,425,279.2,62.1,22.3,5-.4,21.9-2.1,118.7,161.2,160.9,9.6,9.6-4.3,12.2-119.8,339.6,96.3,96.1c-.5,5.3-1.4,10.4-2.6,15.5-.9,4.1-2.1,8.1-3.5,12l-30.8-28.7-86.4-80.5-6.6-6.1,2.8-9.1,106.5-339-165.4-154-7.5-7-.2-11.1-1.8-106.1-252.7-47-63.1,153.4-2.1,226.9v5.3s-1.6,4.5-1.6,4.5l-172.6,478.6,3.6,5.8h-115.1l67.7-31.4,158.7-467.6-.9-89.9-37.3,46-5.4,6.7-5.3,1.5-145.5,40.6-46.2,141.3,26.9-153,.9-5,6.1-2.7,135.1-59.4,69.8-116.4-.4-38.2v-5.8c0,0,2.2-6,2.2-6l67.6-173.7-126.2-410.3-324.4-9.9-131.4,200.9-3.6,5.6-4.5,2.5-282.9,160.5-61.4,226.8c-3.8-4.4-7.6-8.9-11.4-13.4l46.6-226.1,1.1-5.4,5.4-3.5,271.7-177,125.7-220.7,8.5-14.9,19.2-.6,343.7-10.5,43.1-115.4-81.3-181.1-7.9-17.5,8.8-18,142.8-292.6-208.7-225.2-138.3,51.7,36.7,160.6,2.9,12.5-8.9,5.9-212.9,140,182.7-158.6-63.8-170.6-8.4-22.5,24.7-13.2,162.8-87,240.2-367.8c41.2.6,82.1,3.2,122.6,7.9l-261.3,384,211.9,237.6,180.3,60.5,28.2,9.5-.6,28-4.3,204.3,263.6,203.7,15.3,11.8-5.2,17.3-68.5,227.9,56.5,144,236.1,100.3,1.5.6.9.6,145.3,101.4,4,2.8v4.6c0,0,0,0,0,0Z"/>
  <path class="st1" d="M1716.3,5602.8h113.4c38.8,57.9,103.6,96.5,178.7,96.5s139.9-38.6,178.7-96.5h113.5c50.5,0,91.5-40.9,91.5-91.4h-767.2c0,50.5,41,91.4,91.5,91.4h0ZM2422.5,5266.2h-828.2c-50.5,0-91.5,40.9-91.5,91.5s41,91.5,91.5,91.5h828.2c50.5,0,91.5-40.9,91.5-91.5s-41-91.5-91.5-91.5ZM2422.5,5018.4h-828.2c-50.5,0-91.5,40.9-91.5,91.5s41,91.5,91.5,91.5h828.2c50.5,0,91.5-40.9,91.5-91.5s-41-91.5-91.5-91.5ZM2866.6,2415.3c-276.3-247.3-633.1-360.8-1004.9-319.7-591.2,65.6-1067.4,542.5-1132.3,1133.9-48.6,442.1,129,871.4,475,1148.3,110.9,88.8,177.1,232.2,177.1,383.7s98.5,219.7,219.7,219.7h814.4c121.1,0,219.7-98.5,219.7-219.7s65.9-294.8,176.3-383c307.4-245.7,483.8-611.7,483.8-1004s-156.3-715.2-428.8-959.2h0ZM2949.7,4110.3c-3.3,4.1-6.5,8.2-9.9,12.2v-1.5c-54.4,67.5-116.7,129.6-186.1,185.1-132.2,105.7-211.1,275.9-211.1,455.5s-.2,8.9-.7,13.3l-6,27.5c-17,50.1-64.5,86.2-120.2,86.2h-814.4c-70,0-127-56.9-127-126.9,0-179.4-79.2-349.9-211.9-456.1-58.7-47-112.1-98.7-160-154.3l-11.4-13.4c-206.5-247-305.6-568.7-269.4-898.1,60.2-548.7,501.9-991.1,1050.3-1051.9,46.4-5.1,92.5-7.7,138.2-7.7s11.5,0,17.3.1l122.6,7.9c242.2,28.1,468.3,129.3,654.8,296.2,252.9,226.4,398,550.9,398,890.1s-90,526.5-253,734.1v1.7s0,0,0,0Z"/>
  <path class="st1" d="M495.2,3401.9H66c-36.5,0-66,29.6-66,66s29.5,66,66,66h429.2c36.5,0,66-29.6,66-66s-29.5-66-66-66ZM985.2,2444.6c25.8-25.8,25.8-67.6,0-93.4l-303.5-303.5c-25.8-25.8-67.6-25.8-93.4,0-25.8,25.8-25.8,67.6,0,93.4l303.5,303.5c25.8,25.8,67.6,25.8,93.4,0h0ZM2008.5,2020.7c36.5,0,66-29.5,66-66v-429.2c-44-35.1-88-35.1-132.1,0v429.2c0,36.5,29.6,66,66,66h0ZM3335.3,2047.7l-303.5,303.5c-25.8,25.8-25.8,67.6,0,93.4s67.6,25.8,93.4,0l303.5-303.5c25.8-25.8,25.8-67.6,0-93.4-25.8-25.8-67.6-25.8-93.4,0h0ZM3950.9,3401.9h-429.2c-36.5,0-66,29.6-66,66s29.5,66,66,66h429.2c36.5,0,66-29.6,66-66s-29.5-66-66-66Z"/>
  <path class="st1" d="M4806.6,2695.3c-2.7,32.2-4.6,63.3-5.6,93.4-1,30.1-1.5,53.1-1.5,68.8s.3,27.1,1,40c.7,13,1.4,23.6,2.1,31.8h-23.6c-7.5-53.4-19.7-95.5-36.5-126.3-16.8-30.8-37.3-52.5-61.6-65.2-24.3-12.7-51.2-19-80.6-19h-27.7c-19.2,0-33.5,1.5-43.1,4.6-9.6,3.1-15.9,9.4-19,19-3.1,9.6-4.6,24.6-4.6,45.2v542.2c0,19.9,1.5,34.8,4.6,44.7,3.1,9.9,9.4,16.4,19,19.5,9.6,3.1,24,4.6,43.1,4.6h42.1c26.7,0,52.2-7,76.5-21,24.3-14,46-38,65.2-71.9,19.2-33.9,33.5-79.9,43.1-138.1h23.6c-2.1,23.3-3.1,53.4-3.1,90.4s.3,39.7,1,69.8c.7,30.1,2.7,61.6,6.2,94.5-34.9-1.4-74.3-2.2-118.1-2.6-43.8-.3-82.8-.5-117.1-.5h-67.8c-27.4,0-57.2.2-89.3.5-32.2.4-64.7.7-97.5,1-32.9.4-63.7.9-92.4,1.5v-20.5c21.2-1.4,37.1-4.1,47.7-8.2,10.6-4.1,17.8-12.3,21.6-24.6,3.8-12.3,5.6-30.8,5.6-55.5v-509.3c0-25.3-1.9-44-5.6-56-3.8-12-11-20.2-21.6-24.6-10.6-4.4-26.5-7-47.7-7.7v-20.5c29.4.7,60.4,1.2,92.9,1.5,32.5.4,64.9.7,97,1,32.2.4,62,.5,89.3.5h67.8c31.5,0,67.3-.2,107.3-.5,40-.3,75.8-1.2,107.3-2.6h0ZM4651.5,3046.5v20.5h-176.6v-20.5h176.6ZM4681.3,2910.9c-2.7,39-3.9,68.8-3.6,89.3.3,20.5.5,39.4.5,56.5s.3,35.9,1,56.5c.7,20.5,2.4,50.3,5.1,89.3h-23.6c-3.4-24.6-10.6-47.2-21.6-67.8-11-20.5-25.7-37-44.2-49.3-18.5-12.3-41.1-18.5-67.8-18.5v-20.5c19.8,0,37.3-4.3,52.4-12.8,15.1-8.6,27.9-19.7,38.5-33.4,10.6-13.7,19.3-28.4,26.2-44.2,6.8-15.7,11.3-30.8,13.4-45.2h23.6,0ZM5136.2,2890.4v21.6c-13.7,0-23.5,3.1-29.3,9.2-5.8,6.2-5.3,14.7,1.5,25.7l269,402.5c7.5,10.3,15.7,20.9,24.6,31.8,8.9,11,19.2,17.5,30.8,19.5v21.6c-11.6-.7-29.1-1.5-52.4-2.6-23.3-1-46.6-1.5-69.8-1.5s-52.2.5-78.6,1.5c-26.4,1-46.1,1.9-59,2.6v-21.6c13.7,0,23.4-3.1,29.3-9.2,5.8-6.2,5.3-14.7-1.5-25.7l-269-402.5c-10.3-16.4-19.5-28.6-27.7-36.5-8.2-7.9-17.5-12.8-27.7-14.9v-21.6c13,.7,32.9,1.5,59.6,2.6s53,1.5,79.1,1.5,46.4-.5,69.3-1.5c22.9-1,40.2-1.9,51.9-2.6h0ZM5095.1,3181c2.1,8.2,3.8,16.1,5.1,23.6l-25.7,33.9c-21.9,28.1-34.1,54.1-36.5,78-2.4,24,3.2,43.6,16.9,59,13.7,15.4,32.5,24.1,56.5,26.2v20.5c-13-.7-29.8-1.2-50.3-1.5-20.5-.3-40.4-.7-59.6-1-19.2-.3-34.9-.5-47.2-.5s-28.1.2-39,.5c-11,.4-21.6,1.2-31.8,2.6v-20.5c17.1-7.5,33-17.6,47.7-30.3,14.7-12.7,30.6-29.9,47.8-51.9l116-138.6h0ZM5400.1,2890.4v20.5c-14.4,5.5-29.6,15.2-45.7,29.3-16.1,14-32.7,31.3-49.8,51.9l-111.9,135.5c-2.1-7.5-3.8-15.4-5.1-23.6l42.1-54.4c19.8-24,31.8-46.2,35.9-66.7s.8-37.1-9.8-49.8c-10.6-12.7-28.2-20-52.9-22.1v-20.5c20.5.7,42.4,1.4,65.7,2.1,23.3.7,43.5,1,60.6,1s28.2-.3,39.5-1c11.3-.7,21.7-1.4,31.3-2.1h0ZM5674.2,2723v167.4h110.9v20.5h-110.9v420c0,17.1,3.1,29.3,9.2,36.5,6.2,7.2,15.4,10.8,27.7,10.8s21-3.4,32.3-10.3c11.3-6.8,21.7-18.5,31.3-34.9l16.4,10.3c-13,28.1-31,50.7-53.9,67.8-22.9,17.1-52.9,25.7-89.9,25.7s-42.6-2.9-60.1-8.7-32-14.5-43.6-26.2c-15.1-15.1-24.8-33.7-29.3-56-4.5-22.2-6.7-51.2-6.7-86.8v-348.1h-82.1v-20.5h82.1v-128.4c32.2,0,61.8-3.1,88.8-9.2,27-6.2,52.9-16.1,77.5-29.8h0ZM6175.3,2876c23.3,0,41.7,5,55.5,14.9,13.7,9.9,23.6,22.6,29.8,38s9.2,30.6,9.2,45.7c0,28.1-8.1,50.7-24.1,67.8-16.1,17.1-37.1,25.7-63.1,25.7s-48.3-6.3-62.6-19c-14.4-12.7-21.6-29.6-21.6-50.8s4.6-38.7,13.9-52.4c9.2-13.7,20.7-25.3,34.4-34.9-10.3-1.4-20.2,0-29.8,4.1-11,2.7-21.2,7.9-30.8,15.4-9.6,7.5-17.8,16.4-24.6,26.7-6.9,10.3-12.2,21.4-15.9,33.4-3.8,12-5.6,24.1-5.6,36.5v289.6c0,32.9,7.3,55.1,22.1,66.7,14.7,11.6,38.2,17.5,70.3,17.5v21.6c-15.8-.7-39-1.5-69.8-2.6s-62.6-1.5-95.5-1.5-59,.5-88.8,1.5c-29.8,1-51.9,1.9-66.2,2.6v-21.6c22.6,0,38.5-5.1,47.7-15.4s13.9-29.8,13.9-58.5v-324.5c0-30.8-4.5-53.6-13.4-68.3-8.9-14.7-25-22.1-48.3-22.1v-21.6c21.9,2.1,43.1,3.1,63.7,3.1,30.8,0,60.1-1.2,87.8-3.6,27.7-2.4,53.2-6,76.5-10.8v84.2c8.2-17.8,19-33.2,32.3-46.2,13.4-13,28.7-23.1,46.2-30.3,17.5-7.2,36.5-10.8,57-10.8h0ZM6555.2,2876c60.2,0,107.5,17.8,141.7,53.4,34.2,35.6,51.3,94.1,51.3,175.6h-329.6l-1-19.5h191c1.4-33.5,0-64.5-4.1-92.9-4.1-28.4-10.8-51.2-20-68.3-9.2-17.1-21.4-25.7-36.5-25.7s-38,14.7-52.4,44.2c-14.4,29.4-23.3,79.4-26.7,149.9l4.1,7.2c-1.4,7.5-2.1,15.2-2.1,23.1v25.2c0,47.2,6.3,84.9,19,113,12.7,28.1,28.6,47.9,47.8,59.6,19.2,11.6,39,17.5,59.6,17.5s24.6-1.7,39-5.1c14.4-3.4,29.4-10.6,45.2-21.6,15.7-10.9,30.8-27,45.2-48.3l17.5,6.2c-7.5,26.7-20.4,52.9-38.5,78.6-18.2,25.7-41.3,46.9-69.3,63.7-28.1,16.8-62,25.2-101.7,25.2s-85.6-9.4-121.2-28.2c-35.6-18.8-63.8-48.6-84.7-89.3-20.9-40.7-31.3-94-31.3-159.7s11.3-118.4,33.9-160.2c22.6-41.7,53.4-72.7,92.4-92.9,39-20.2,82.8-30.3,131.4-30.3h0ZM7179.6,2876c29.4,0,53.2,3.8,71.4,11.3,18.1,7.5,32.3,17.1,42.6,28.7,10.9,13,18.8,30,23.6,50.8,4.8,20.9,7.2,48.4,7.2,82.7v277.2c0,28.7,3.9,48.3,11.8,58.5,7.9,10.3,21.7,15.4,41.6,15.4v21.6c-13-.7-32.2-1.5-57.5-2.6-25.3-1-50-1.5-73.9-1.5s-51.3.5-76,1.5-43.1,1.9-55.5,2.6v-21.6c15.7,0,26.9-5.1,33.4-15.4,6.5-10.3,9.8-29.8,9.8-58.5v-326.5c0-15.7-1.4-29.3-4.1-40.6-2.7-11.3-7.5-19.8-14.4-25.7-6.9-5.8-16.8-8.7-29.8-8.7s-29.3,4.1-42.6,12.3c-13.4,8.2-24,19.7-31.8,34.4-7.9,14.7-11.8,31.3-11.8,49.8v305c0,28.7,3.1,48.3,9.2,58.5s17.5,15.4,33.9,15.4v21.6c-11.6-.7-29.1-1.5-52.4-2.6-23.3-1-46.9-1.5-70.9-1.5s-56.1.5-84.2,1.5c-28.1,1-49.3,1.9-63.7,2.6v-21.6c22.6,0,38.5-5.1,47.7-15.4s13.9-29.8,13.9-58.5v-324.5c0-30.8-4.5-53.6-13.4-68.3-8.9-14.7-25-22.1-48.3-22.1v-21.6c21.9,2.1,43.1,3.1,63.7,3.1,30.8,0,60.1-1.2,87.8-3.6,27.7-2.4,53.2-6,76.5-10.8v83.2c15.7-30.8,37.1-52.9,64.2-66.2,27-13.4,57.7-20,91.9-20h0ZM7488.6,2876c29.4,0,53.2,3.8,71.4,11.3,18.1,7.5,32.3,17.1,42.6,28.7,10.9,13,18.8,30,23.6,50.8,4.8,20.9,7.2,48.4,7.2,82.7v277.2c0,28.7,4.6,48.3,13.9,58.5s25.2,15.4,47.8,15.4v21.6c-13.7-.7-34.1-1.5-61.1-2.6-27.1-1-53.2-1.5-78.6-1.5s-51.3.5-76,1.5-43.1,1.9-55.5,2.6v-21.6c15.7,0,26.9-5.1,33.4-15.4,6.5-10.3,9.8-29.8,9.8-58.5v-326.5c0-15.7-1.7-29.3-5.1-40.6-3.4-11.3-9.1-19.8-16.9-25.7-7.9-5.8-19.3-8.7-34.4-8.7s-29.3,4.6-42.6,13.9c-13.4,9.2-24,21.4-31.8,36.5-7.9,15.1-12.5,31.8-13.9,50.3l-6.2-51.3c18.5-38.3,42.8-64.3,72.9-78,30.1-13.7,63.3-20.5,99.6-20.5h0ZM7999,2876c60.2,0,107.5,17.8,141.7,53.4,34.2,35.6,51.3,94.1,51.3,175.6h-329.6l-1-19.5h191c1.4-33.5,0-64.5-4.1-92.9-4.1-28.4-10.8-51.2-20-68.3-9.2-17.1-21.4-25.7-36.5-25.7s-38,14.7-52.4,44.2c-14.4,29.4-23.3,79.4-26.7,149.9l4.1,7.2c-1.4,7.5-2.1,15.2-2.1,23.1v25.2c0,47.2,6.3,84.9,19,113,12.7,28.1,28.6,47.9,47.8,59.6,19.2,11.6,39,17.5,59.6,17.5s24.6-1.7,39-5.1c14.4-3.4,29.4-10.6,45.2-21.6,15.7-10.9,30.8-27,45.2-48.3l17.5,6.2c-7.5,26.7-20.4,52.9-38.5,78.6-18.1,25.7-41.3,46.9-69.3,63.7-28.1,16.8-62,25.2-101.7,25.2s-85.6-9.4-121.2-28.2c-35.6-18.8-63.8-48.6-84.7-89.3-20.9-40.7-31.3-94-31.3-159.7s11.3-118.4,33.9-160.2c22.6-41.7,53.4-72.7,92.4-92.9,39-20.2,82.8-30.3,131.4-30.3h0ZM5677.3,3927.5v20.5c-21.2.7-37.3,3.3-48.3,7.7-11,4.5-18.2,12.7-21.6,24.6-3.4,12-5.1,30.6-5.1,56v509.3c0,24.6,1.9,43.1,5.6,55.5,3.8,12.3,10.9,20.5,21.6,24.6,10.6,4.1,26.5,6.9,47.7,8.2v20.5c-19.2-1.4-43.6-2.2-73.4-2.6-29.8-.3-59.7-.5-89.9-.5s-67.6.2-98.1.5c-30.5.4-55.3,1.2-74.4,2.6v-20.5c21.2-1.4,37.1-4.1,47.7-8.2,10.6-4.1,17.8-12.3,21.6-24.6,3.8-12.3,5.6-30.8,5.6-55.5v-509.3c0-25.3-1.9-44-5.6-56-3.8-12-11-20.2-21.6-24.6-10.6-4.4-26.5-7-47.7-7.7v-20.5c19.2.7,44,1.4,74.4,2.1,30.4.7,63.1,1,98.1,1s60.1-.3,89.9-1c29.8-.7,54.2-1.4,73.4-2.1ZM5952.5,4108.2c30.1,0,56.1,4.3,78,12.8,21.9,8.6,40,22.8,54.4,42.6l-12.3,10.3c-8.9-11.6-19.7-20.2-32.3-25.7-12.7-5.5-25.8-8.2-39.5-8.2-32.9,0-58.4,20.4-76.5,61.1-18.2,40.7-27.2,103.2-27.2,187.4s3.6,105.2,10.8,139.1c7.2,33.9,17.1,57.7,29.8,71.4,12.7,13.7,26.9,20.5,42.6,20.5s40.2-8,57-24.1c16.8-16.1,25.5-37.5,26.2-64.2l3.1,43.1c-12.3,31.5-29.3,55.1-50.8,70.9-21.6,15.7-49.1,23.6-82.7,23.6s-75.5-9.9-107.3-29.8c-31.8-19.8-56.8-50.5-75-91.9-18.2-41.4-27.2-95.3-27.2-161.7s9.8-113.8,29.3-154.5c19.5-40.7,46.5-71.4,81.1-91.9,34.6-20.5,74.1-30.8,118.6-30.8h0ZM6228.7,3851.5v690c0,30.8,4.6,53.6,13.9,68.3,9.2,14.7,25.2,22.1,47.8,22.1v21.6c-21.2-2.1-42.4-3.1-63.7-3.1-30.8,0-59.9,1-87.3,3.1-27.4,2.1-53.1,5.8-77,11.3v-690c0-30.8-4.3-53.6-12.8-68.3-8.6-14.7-24.8-22.1-48.8-22.1v-21.6c21.9,2.1,43.1,3.1,63.7,3.1,31.5,0,60.9-1.2,88.3-3.6,27.4-2.4,52.7-6,76-10.8h0ZM6600.4,4108.2c60.2,0,107.5,17.8,141.7,53.4,34.2,35.6,51.3,94.1,51.3,175.6h-329.6l-1-19.5h191c1.4-33.5,0-64.5-4.1-92.9-4.1-28.4-10.8-51.2-20-68.3-9.2-17.1-21.4-25.7-36.5-25.7s-38,14.7-52.4,44.2c-14.4,29.4-23.3,79.4-26.7,149.9l4.1,7.2c-1.4,7.5-2.1,15.2-2.1,23.1v25.2c0,47.2,6.3,84.9,19,113,12.7,28.1,28.6,47.9,47.8,59.6,19.2,11.6,39,17.5,59.6,17.5s24.6-1.7,39-5.1c14.4-3.4,29.4-10.6,45.2-21.6,15.7-10.9,30.8-27,45.2-48.3l17.5,6.2c-7.5,26.7-20.4,52.9-38.5,78.6-18.2,25.7-41.3,46.9-69.3,63.7-28.1,16.8-62,25.2-101.7,25.2s-85.6-9.4-121.2-28.2c-35.6-18.8-63.8-48.6-84.7-89.3-20.9-40.7-31.3-94-31.3-159.7s11.3-118.4,33.9-160.2c22.6-41.7,53.4-72.7,92.4-92.9,39-20.2,82.8-30.3,131.4-30.3h0ZM6988.6,4661.7c-31.5,0-57.5-6-78-18-20.5-12-35.6-27.9-45.2-47.7-9.6-19.8-14.4-41.1-14.4-63.7s6.7-52.4,20-70.9c13.4-18.5,30.6-33.4,51.9-44.7,21.2-11.3,43.5-20.7,66.7-28.2,23.3-7.5,45.5-14.9,66.7-22.1,21.2-7.2,38.3-15.7,51.3-25.7,13-9.9,19.5-22.8,19.5-38.5v-85.2c0-15.1-2.2-29.3-6.7-42.6-4.5-13.4-12.3-24.3-23.6-32.9-11.3-8.6-26.9-12.8-46.7-12.8s-24.3,1.7-35.9,5.1c-11.6,3.4-21.9,8.9-30.8,16.4,21.9,7.5,38.2,18.8,48.8,33.9,10.6,15.1,15.9,31.8,15.9,50.3s-8.7,45.4-26.2,60.1c-17.5,14.7-38.2,22.1-62.1,22.1s-46.1-8.2-60.1-24.6c-14-16.4-21-36.3-21-59.6s5.1-37.8,15.4-51.9c10.3-14,25.3-26.9,45.2-38.5,19.8-11.6,43.8-20.2,71.9-25.7,28.1-5.5,57.8-8.2,89.3-8.2s61.8,3.3,88.8,9.8c27,6.5,50.1,19.3,69.3,38.5,15,15.8,24.6,34.9,28.7,57.5,4.1,22.6,6.2,51.3,6.2,86.3v277.2c0,17.1,1.5,28.9,4.6,35.4,3.1,6.5,8,9.8,14.9,9.8s12-1.7,17.5-5.1c5.5-3.4,10.9-7.2,16.4-11.3l11.3,17.5c-15.1,12.3-32.9,21.7-53.4,28.2-20.5,6.5-42.8,9.8-66.7,9.8s-48.8-3.6-64.2-10.8c-15.4-7.2-26.4-16.9-32.9-29.3-6.5-12.3-10.1-26-10.8-41.1-15.1,24.6-33.9,44.3-56.5,59-22.6,14.7-51,22.1-85.2,22.1h0ZM7073.8,4587.8c10.9,0,20.7-2.2,29.3-6.7,8.6-4.4,16.6-12.1,24.1-23.1v-213.6c-5.5,9.6-12.8,18.7-22.1,27.2-9.2,8.6-19,17.1-29.3,25.7-10.3,8.6-20,18-29.3,28.2-9.2,10.3-16.8,22.4-22.6,36.5-5.8,14-8.7,31-8.7,50.8s5.5,45.9,16.4,57.5c10.9,11.6,25,17.5,42.1,17.5h0Z"/>
  <path class="st0" d="M855.4,276.4c20.2.8,46,1.6,77.4,2.4s62.9,1.2,94.4,1.2,77-.4,112.5-1.2,60.5-1.2,75-1.2c108.1,0,188.6,22.2,241.4,66.6s79.3,101.6,79.3,171.8-5.2,59.5-15.7,91.4c-10.5,31.9-28.6,61.3-54.5,88.3-25.8,27-61.1,49-105.9,66s-101.8,25.4-171.2,25.4h-121v-24.2h108.9c50.8,0,89.7-10.9,116.8-32.7,27-21.8,45.2-50.4,54.5-85.9s13.9-73.8,13.9-115c0-76.6-12.5-133.9-37.5-171.8-25-37.9-68.2-56.9-129.5-56.9s-54.7,6.9-64.7,20.6c-10.1,13.7-15.1,41.6-15.1,83.5v595.3c0,30.7,3.2,53.7,9.7,69s19,25.4,37.5,30.2,45.2,7.7,79.9,8.5v25.4c-23.4-1.6-53.7-2.6-90.8-3s-75.4-.6-115-.6-66.5.2-98,.6-58.9,1.4-82.3,3v-24.2c26.6-1.6,46.6-4.8,59.9-9.7s22.2-14.5,26.6-29c4.4-14.5,6.7-36.3,6.7-65.3V404.6c0-29.8-2.2-51.8-6.7-66-4.4-14.1-13.3-23.8-26.6-29s-33.3-8.3-59.9-9.1v-24.2ZM1886.4,490.6c55.7,0,105.1,11.1,148.2,33.3s77.5,57.5,102.9,105.9,38.1,112.1,38.1,191.2-12.7,142.8-38.1,191.2-59.7,83.5-102.9,105.3-92.6,32.7-148.2,32.7-105.3-10.9-148.8-32.7-77.9-56.9-102.9-105.3c-25-48.4-37.5-112.1-37.5-191.2s12.5-142.8,37.5-191.2c25-48.4,59.3-83.7,102.9-105.9s93.2-33.3,148.8-33.3ZM1886.4,514.8c-37.9,0-68.8,24-92.6,72s-35.7,126-35.7,234.1,11.9,186,35.7,233.5,54.7,71.4,92.6,71.4,67.8-23.8,92-71.4c24.2-47.6,36.3-125.4,36.3-233.5s-12.1-186.1-36.3-234.1c-24.2-48-54.9-72-92-72ZM2513.2,507.5v25.4c-19.4,0-35.9,1.4-49.6,4.2-13.7,2.8-22.8,9.5-27.2,20s-2.6,29,5.5,55.7l118.6,360.6-13.3,9.7,153.7-478,25.4,12.1-197.2,619.5c-9.7-.8-19.6-1.2-29.7-1.2s-20,.4-29.6,1.2l-193.6-536c-12.9-32.3-25.6-51.6-38.1-58.1s-23.2-9.7-32.1-9.7v-25.4c22.6,2.4,46,4.2,70.2,5.5,24.2,1.2,50.8,1.8,79.9,1.8s51.4-.8,79.3-2.4c27.8-1.6,53.8-3.2,78-4.8ZM3155.7,507.5v25.4c-15.3,3.2-30.1,11.5-44.2,24.8-14.1,13.3-26.8,37.7-38.1,73.2l-165.8,505.8c-9.7-.8-19.4-1.2-29-1.2s-19.8.4-30.2,1.2l-177.9-475.5,31.5-156.1c11.3.8,22.6,1.2,33.9,1.2s22.6-.4,33.9-1.2l173,492.5-12.1-6,94.4-292.8c12.1-38.7,16.7-69.8,13.9-93.2-2.8-23.4-12.1-40.9-27.8-52.6-15.7-11.7-37.3-18.3-64.7-20v-25.4c12.9.8,26.2,1.6,39.9,2.4s27,1.4,39.9,1.8,25,.6,36.3.6c16.9,0,33.9-.4,50.8-1.2s31.1-2,42.4-3.6ZM3476.4,490.6c71,0,126.7,21.4,167,64.1,40.3,42.8,60.5,110.9,60.5,204.5h-407.8l-1.2-23h268.6c1.6-39.5-.8-76-7.3-109.5-6.5-33.5-16.7-60.3-30.8-80.5-14.1-20.2-32.5-30.2-55.1-30.2s-57.3,18-79.9,53.8c-22.6,35.9-36.7,94.6-42.3,176.1l4.8,7.3c-1.6,10.5-2.6,21.8-3,33.9-.4,12.1-.6,24.2-.6,36.3,0,55.7,8.1,101.7,24.2,138,16.1,36.3,37.1,62.9,62.9,79.9s52.4,25.4,79.9,25.4,37.5-2.8,56.9-8.5c19.4-5.7,38.3-16.1,56.9-31.5,18.5-15.3,35.5-37.1,50.8-65.3l23,9.7c-8.9,28.2-23.6,56.3-44.2,84.1-20.6,27.8-47,50.6-79.3,68.4-32.3,17.7-70.2,26.6-113.7,26.6s-103.3-12.1-145.2-36.3c-42-24.2-74.6-60.3-98-108.3-23.4-48-35.1-106.7-35.1-176.1s12.3-135.1,36.9-185.1c24.6-50,58.7-88.1,102.2-114.4s93.2-39.3,148.8-39.3ZM4179.5,490.6c25,0,45.8,5.2,62.3,15.7,16.5,10.5,28.8,23.8,36.9,39.9s12.1,33.1,12.1,50.8c0,26.6-7.9,48.8-23.6,66.6-15.7,17.8-36.5,26.6-62.3,26.6s-44-6.5-59.3-19.4-23-30.6-23-53.2,5-37.1,15.1-50.8c10.1-13.7,21.6-24.6,34.5-32.7-8.9-4.8-19-6.4-30.2-4.8-19.4,1.6-37.1,8.5-53.2,20.6-16.1,12.1-29.9,27-41.2,44.8s-20,36.7-26,56.9c-6,20.2-9.1,39.5-9.1,58.1v298.9c0,39.5,10.1,66,30.2,79.3,20.2,13.3,49.6,20,88.3,20v25.4c-18.6-.8-45.4-1.8-80.5-3s-71.6-1.8-109.5-1.8-62.7.6-93.8,1.8-54.2,2.2-69.6,3v-25.4c29.8,0,51-6,63.5-18.2,12.5-12.1,18.8-35.1,18.8-69v-381.2c0-36.3-5.9-63.1-17.5-80.5-11.7-17.3-33.3-26-64.7-26v-25.4c25.8,2.4,50.8,3.6,75,3.6s58.3-1.4,85.3-4.2c27-2.8,51.8-7,74.4-12.7v125.8c9.7-22.6,22.4-43.6,38.1-62.9,15.7-19.4,34.7-35.3,56.9-47.8s46.2-18.8,72-18.8ZM4618.7,490.6c71,0,126.7,21.4,167,64.1,40.3,42.8,60.5,110.9,60.5,204.5h-407.8l-1.2-23h268.6c1.6-39.5-.8-76-7.3-109.5-6.5-33.5-16.7-60.3-30.8-80.5-14.1-20.2-32.5-30.2-55.1-30.2s-57.3,18-79.9,53.8c-22.6,35.9-36.7,94.6-42.3,176.1l4.8,7.3c-1.6,10.5-2.6,21.8-3,33.9-.4,12.1-.6,24.2-.6,36.3,0,55.7,8.1,101.7,24.2,138,16.1,36.3,37.1,62.9,62.9,79.9s52.4,25.4,79.9,25.4,37.5-2.8,56.9-8.5c19.4-5.7,38.3-16.1,56.9-31.5,18.5-15.3,35.5-37.1,50.8-65.3l23,9.7c-8.9,28.2-23.6,56.3-44.2,84.1-20.6,27.8-47,50.6-79.3,68.4-32.3,17.7-70.2,26.6-113.7,26.6s-103.3-12.1-145.2-36.3c-42-24.2-74.6-60.3-98-108.3-23.4-48-35.1-106.7-35.1-176.1s12.3-135.1,36.9-185.1c24.6-50,58.7-88.1,102.2-114.4s93.2-39.3,148.8-39.3ZM5215.3,490.6c35.5,0,67.4,6.9,95.6,20.6s49.2,36.7,62.9,69l-14.5,12.1c-11.3-23.4-26.6-40.7-46-52-19.4-11.3-41.2-17-65.3-17-43.6,0-78.5,24.4-104.7,73.2s-39.3,123.6-39.3,224.5,5.2,122.4,15.7,164c10.5,41.5,25.6,71.6,45.4,90.2s43.4,27.8,70.8,27.8,55.2-11.9,78.6-35.7,37.1-57.9,41.2-102.3l8.5,33.9c-10.5,49.2-30.3,86.7-59.3,112.5-29,25.8-67.4,38.7-115,38.7s-91.4-11.9-128.9-35.7c-37.5-23.8-66.6-60.1-87.1-108.9-20.6-48.8-30.9-110.7-30.9-185.8s12.1-134.5,36.3-183.3,56.9-85.3,98-109.5,87.1-36.3,138-36.3ZM5504.5,185.6v815.6c0,36.3,6,63.1,18.2,80.5,12.1,17.3,33.5,26,64.1,26v25.4c-25-2.4-50-3.6-75-3.6s-58.1,1.2-84.7,3.6-51.6,6.8-75,13.3V330.8c0-36.3-5.9-63.1-17.5-80.5-11.7-17.3-33.3-26-64.7-26v-25.4c25.8,2.4,50.8,3.6,75,3.6s59.3-1.4,85.9-4.2c26.6-2.8,51.2-7,73.8-12.7ZM5942.5,276.4c19.4.8,45,1.6,76.8,2.4,31.9.8,63.5,1.2,95,1.2s76-.4,111.9-1.2,61.1-1.2,75.6-1.2c95.2,0,166.4,17.8,213.6,53.2s70.8,81.1,70.8,136.7-7.5,56.5-22.4,84.7-38.7,53.6-71.4,76.2-75.2,39.5-127.7,50.8v2.4c71,6.5,127.2,20.8,168.8,43s71.2,48.4,88.9,78.7,26.6,61.9,26.6,95c0,49.2-12.7,91.4-38.1,126.5s-62.1,61.9-110.1,80.5c-48,18.6-105.1,27.8-171.2,27.8s-44.8-.6-81.1-1.8c-36.3-1.2-80.3-1.8-131.9-1.8s-65.5.2-97.4.6c-31.9.4-57.5,1.4-76.8,3v-24.2c26.6-1.6,46.6-4.8,59.9-9.7s22.2-14.5,26.6-29c4.4-14.5,6.7-36.3,6.7-65.3V404.6c0-29.8-2.2-51.8-6.7-66-4.4-14.1-13.3-23.8-26.6-29s-33.3-8.3-59.9-9.1v-24.2ZM6281.3,300.6c-33.1,0-54.7,6.9-64.7,20.6-10.1,13.7-15.1,41.6-15.1,83.5v600.2c0,28.2,2.2,49.6,6.7,64.1,4.4,14.5,12.9,24.2,25.4,29s30.5,7.3,53.9,7.3c65.3,0,112.9-18.3,142.8-55.1,29.8-36.7,44.8-88.9,44.8-156.7s-15.9-110.1-47.8-144c-31.9-33.9-84.5-50.8-157.9-50.8h-110.1v-20.6h104.1c41.1,0,72.8-9.1,95-27.2s37.5-42.4,46-72.6,12.7-62.7,12.7-97.4c0-59.7-10.5-104.7-31.5-134.9s-55.7-45.4-104.1-45.4ZM7285.7,507.5v25.4c-15.3,3.2-29.7,11.7-43,25.4s-26,37.9-38.1,72.6l-179.1,491.3-37.5,56.9-249.3-578.4c-15.3-30.7-29.8-49.6-43.6-56.9-13.7-7.2-25-10.9-33.9-10.9v-25.4c23.4,2.4,47.8,4.2,73.2,5.5,25.4,1.2,51,1.8,76.9,1.8s58.7-.8,86.5-2.4c27.8-1.6,53.8-3.2,78-4.8v25.4c-18.6,0-35.1,1.2-49.6,3.6-14.5,2.4-24,9.1-28.4,20s-1.4,29.6,9.1,56.3l151.2,369.1-9.7,4.8,106.5-288c13.7-37.9,19.3-68.6,16.9-92-2.4-23.4-11.3-41.1-26.6-53.2s-36.3-19-62.9-20.6v-25.4l38.7,2.4c12.9.8,25.4,1.4,37.5,1.8,12.1.4,23.8.6,35.1.6,16.9,0,33.7-.4,50.2-1.2,16.5-.8,30.5-2,41.8-3.6ZM7025.5,1122.2l-46,122.2c-7.3,20.2-15.1,37.3-23.6,51.4-8.5,14.1-18,25.6-28.4,34.5-12.1,10.5-26.8,18.1-44.2,23-17.3,4.8-36.5,7.2-57.5,7.2s-36.5-3.2-53.8-9.7c-17.3-6.5-31.9-16.1-43.6-29-11.7-12.9-17.5-29.8-17.5-50.8s7.7-40.8,23-54.5c15.3-13.7,36.3-20.6,62.9-20.6s42.5,5.8,57.5,17.5c14.9,11.7,22.4,29.2,22.4,52.6s-4.4,29-13.3,41.1c-8.9,12.1-21.4,21.4-37.5,27.8,4,.8,7.9,1.4,11.5,1.8,3.6.4,6.7.6,9.1.6,23.4,0,44.3-7.7,62.9-23,18.6-15.3,33.5-39.5,44.8-72.6l43.6-119.8h27.8ZM7466.1,491.4c27.4,0,50,8.1,67.8,24.2,17.8,16.1,26.6,37.5,26.6,64.1s-8.9,48-26.6,64.1c-17.8,16.1-40.3,24.2-67.8,24.2s-51-8.1-68.4-24.2c-17.3-16.1-26-37.5-26-64.1s8.7-48,26-64.1c17.3-16.1,40.1-24.2,68.4-24.2ZM7466.1,973.4c27.4,0,50,8.1,67.8,24.2,17.8,16.1,26.6,37.5,26.6,64.1s-8.9,48-26.6,64.1-40.3,24.2-67.8,24.2-51-8.1-68.4-24.2-26-37.5-26-64.1,8.7-48,26-64.1c17.3-16.1,40.1-24.2,68.4-24.2Z"/>
</svg>