<?xml version="1.0" encoding="UTF-8"?>
<svg id="Layer_1" xmlns="http://www.w3.org/2000/svg" version="1.1" viewBox="0 0 128 88">
  <!-- Generator: Adobe Illustrator 30.3.0, SVG Export Plug-In . SVG Version: 2.1.3 Build 182)  -->
  <defs>
    <style>
      .st0 {
        fill: #e8c58c;
      }
    </style>
  </defs>
  <path class="st0" d="M44.3,46.5c-.1-.4-.4,0-.6,0-4.5,1.2-9,2.7-13.7,2.5-.3,0-.4.1-.4.3,0,.3.3.1.4.1,1.2,0,2.3,0,3.5-.2.3,0,.6-.1.9-.1,3.2-.4,6.2-1.5,9.4-2.2.2,0,.6,0,.5-.4Z"/>
  <path class="st0" d="M40.8,61.8c-2.9.7-5.8,1.5-8.7,2.2-2.5.5-5,.9-7.5.8-.5,0-.6.2-.6.6,1.6,0,3.2,0,4.8-.3,4.2-.5,8.3-1.8,12.4-2.8.1,0,.3,0,.4-.2,0-.1.1-.3,0-.4-.2-.1-.4,0-.6,0Z"/>
  <path class="st0" d="M109.9,59.6s0,0,0,0c0,0,0,0,0,0Z"/>
  <path class="st0" d="M41.7,60.7c0-.4-.3-.1-.5,0-3.5.9-6.9,1.9-10.5,2.5-1.9.3-3.8.5-5.7.5-.3,0-.6,0-.6.4,0,.4.3.2.5.2,2.1,0,4.2-.2,6.3-.6,3-.5,6-1.4,9.1-2.2.4,0,.7-.2,1-.2.3,0,.5-.2.4-.5Z"/>
  <path class="st0" d="M44.1,47.5c0-.2-.2,0-.3,0-.4,0-.8.2-1.1.3-4.3,1.1-8.5,2.5-13,2.3-.4,0-.4.2-.4.5.5,0,.9,0,1.4,0,1.5,0,3-.2,4.5-.5,2.7-.5,5.4-1.3,8-2,.3,0,.5-.1.8-.2.2,0,.2-.2.2-.4Z"/>
  <path class="st0" d="M43.5,50.5c0-.3-.3-.1-.4,0-.6.1-1.1.3-1.7.4-2.8.8-5.6,1.5-8.5,1.9-1.4.2-2.9.3-4.3.2-.3,0-.5,0-.5.3,0,.4.3.2.5.2,1,0,2,0,3.1-.1,2.7-.2,5.2-.9,7.7-1.5,1.3-.3,2.5-.7,3.8-1,.2,0,.4-.1.3-.4Z"/>
  <path class="st0" d="M43.9,48.5c0-.3-.3,0-.4,0-.8.2-1.6.4-2.4.6-2.9.8-5.8,1.6-8.8,1.8-1,0-2,.1-2.9.1-.3,0-.4,0-.4.3,0,.3.3.2.4.2.5,0,1,0,1.6,0,2.9,0,5.6-.7,8.3-1.4,1.5-.4,2.9-.8,4.4-1.2.3,0,.4-.2.4-.4Z"/>
  <path class="st0" d="M43.7,49.3c-1.2.3-2.3.6-3.4.9-3.1.8-6.2,1.6-9.4,1.8-.7,0-1.3,0-2,0-.2,0-.4.1-.4.3,0,.3.2.2.4.2,1.5,0,3,0,4.5-.3,3.4-.4,6.7-1.5,10-2.3.3,0,.5-.2.5-.6Z"/>
  <path class="st0" d="M42.9,53.7c0-.3-.3,0-.5,0-1,.2-2,.5-3,.8-3.9,1.1-7.8,2-12,1.9-.4,0-.5.2-.5.4,0,.2.3.1.4.1,1.4,0,2.8,0,4.2-.2,2.7-.4,5.2-1,7.8-1.7,1-.3,2.1-.6,3.1-.8.3,0,.5-.2.4-.4Z"/>
  <path class="st0" d="M43.1,52.6c0-.3-.3,0-.5,0-1.8.5-3.5.9-5.3,1.4-3.1.8-6.3,1.4-9.5,1.3-.3,0-.6,0-.6.4,0,.3.4.1.5.2,3.5,0,6.8-.6,10.1-1.5,1.6-.4,3.2-.9,4.8-1.3.3,0,.4-.2.3-.5Z"/>
  <path class="st0" d="M43.3,51.5c0-.3-.3,0-.4,0-.6.1-1.3.3-1.9.5-2.9.8-5.9,1.6-8.9,2-1.3.2-2.6.2-3.9.2-.3,0-.5,0-.5.3,0,.4.3.2.5.2.7,0,1.5,0,2.2,0,3.9-.2,7.6-1.3,11.3-2.3.5-.1.9-.2,1.4-.3.3,0,.3-.3.3-.4Z"/>
  <path class="st0" d="M42.7,54.9c0-.3-.3-.1-.4,0-1.2.3-2.5.6-3.7.9-2.6.7-5.2,1.3-7.9,1.6-.2,0-.3,0-.4,0-1.1,0-2.2.2-3.4.1-.3,0-.4.1-.4.4,0,.3.2.2.4.2.9,0,1.9,0,2.8,0,2.8-.2,5.6-.8,8.3-1.6,1.4-.4,2.9-.8,4.3-1.1.2,0,.4-.2.4-.4Z"/>
  <path class="st0" d="M42.4,56.9c-1.6.4-3.2.8-4.8,1.2-3.7,1-7.4,1.8-11.3,1.7-.4,0-.6.1-.6.5,1,0,2.1,0,3.2,0,1.3-.2,2.5-.3,3.8-.5,3.2-.6,6.2-1.5,9.4-2.3.4,0,.3-.3.4-.7Z"/>
  <path class="st0" d="M42.5,55.8c-1.6.4-3.2.8-4.8,1.2-3.6,1-7.3,1.8-11.1,1.6-.1,0-.2,0-.3,0-.2,0-.2.3-.2.4,0,.2.2.1.3.1.4,0,.8,0,1.3,0,1.9,0,3.7-.3,5.6-.6,3-.6,5.9-1.5,8.9-2.2.4,0,.4-.3.4-.6Z"/>
  <path class="st0" d="M42.1,58.3c0-.3-.3,0-.4,0-.6.1-1.3.3-1.9.5-4.6,1.3-9.2,2.5-14.1,2.4-.3,0-.4,0-.4.3,0,.4.3.2.5.2,2.7,0,5.4-.3,8.1-1,2.1-.4,4.2-1,6.2-1.5.6-.1,1.1-.3,1.7-.4.3,0,.4-.3.4-.5Z"/>
  <path class="st0" d="M41.9,59.3c-1.7.4-3.4.9-5.1,1.3-3,.8-5.9,1.5-9,1.6-.8,0-1.7,0-2.5,0-.3,0-.5.2-.5.4,0,.3.3.1.4.2,2.2,0,4.3-.2,6.4-.6,3.2-.5,6.2-1.5,9.4-2.3.4-.1,1,0,.8-.8Z"/>
  <path class="st0" d="M126.2,76.4c-2.7-4.4-5.4-8.8-8.1-13.2-2.6-4.3-5.2-8.6-7.8-12.9-.5-.9-1.3-1.2-2.2-1.3-.6,0-1.1-.2-1.6-.6-1.5-1.1-2.9-2.3-4.1-3.6-.8-.8-1.5-1.1-2.6-1-3.9.2-7.8-.3-11.6-1.5-2.8-.8-5.6-1.7-8.6-2.2-.4,0-.6,0-.6.4-.1.5.3.4.5.4,2.4.3,4.7,1.1,7.1,1.7,1.7.5,3.4,1,5.2,1.3,2.9.5,5.8.7,8.7.6.4,0,.6.1.8.5.8,1.9,1.7,3.8,2.6,5.7,2.5,5.5,5.1,11,7.6,16.4.2.4,0,.5-.3.7-1.2.3-2.4.4-3.6.4-3.6,0-7.1-.5-10.5-1.3-3.1-.7-6.2-1.6-9.3-2.4-3.7-.9-7.4-1.3-11.1-.9-5.5.6-9.4,3.5-11.7,8.4,0,.1,0,.3-.3.4,0-2.4,0-4.7,0-7.1-.2-3.8,1.2-7,3.5-9.9,1.7-2.2,3.6-4.2,5.4-6.3,2.9-3.1,4.6-6.8,5.3-11,0-.5.3-.9.7-1.1.9-.7,1.8-1.5,2.7-2.3,2.3-2.3,4.3-4.8,5-8,.2-.8.3-1.6.3-2.5-.5.6-1,1.2-1.4,1.7-1.8,2.2-3.9,4-6.6,4.9-.3.1-.6.2-1.1.1.4-.7.9-1.2,1.3-1.7,1.7-2.1,3.1-4.4,3.6-7.1.3-1.8.2-3.6-.8-5.3,0,.2-.1.3-.2.4-.4,1-.8,2.1-1.2,3.1-.4.9-1.1,1.8-2.1,2.1-.9.3-1.4,0-1.5-1,0-.5,0-1,0-1.6.5-4.4,0-8.6-1.2-12.8-.3-1-.7-1.9-1-2.8-.6,3.3-1,6.6-2,9.8,0-2.6-.7-5-1.7-7.4,0,0-.1,0-.2,0,.1,1,0,1.9,0,2.9,0,2.2-.3,4.5-1.3,6.5-1.7,3.5-3.5,6.9-5.9,10-1.1,1.4-2,2.9-1.6,4.9.2,1-.7,2.2-1.7,2.5-.2,0-.4.2-.5,0-.1-.1,0-.3,0-.5.3-.9.7-1.7.5-2.7-.1-.7.2-1.2.7-1.6.2-.2.4-.3.6-.5-.9-.1-1.5.3-2,.8-.5.5-1,1.1-1.6,1.6-2.4,1.9-4.6,3.9-6.1,6.6-1.4,2.5-2.2,5.1-1.9,7.9.3,3.7,2,6.7,4.4,9.4,2.5,2.7,5.3,5.1,7.7,8,0-.1-.2-.3-.2-.4,0,0,0,0,0,0,0,0,0,0,0-.1,0,0,0,0,0,0-2.4-4-4.4-8.2-5.2-12.9-.5-3.1-.2-6.1.7-9.1.5-1.7,1.2-3.3,2-4.9,0,0,0,0,0,0,0,0,0,0,0,0,0,0-.2,0-.3.1,0,0,0,0-.1,0-.4.4-.8.8-1,1.3,0,0,0,0,0,0,0,0,0,0,0-.1,0-.1.1-.3.2-.4-.1.2-.3.4-.4.6,0,0,0,0,0,0,0,.2-.1.3-.3.4-.1-.2.1-.3.1-.5,0,0,0,0,0,0,.2-.6.5-1.1.8-1.5.2-.4.6-.6,1-.2,0,0,0,0,0,0,.3-.2.5-.5.9-.5,0,.2,0,.3,0,.5,0,0,0,.2,0,.4-.2.9,0,1.9,0,2.8.1,1.3.5,2.6,1.2,3.7,0,.1.2.2.3.3.2.1.4.1.5-.2.8-2.8,2.5-5.1,4.1-7.4,2-2.7,3.3-5.7,3.7-9.1.4-3.1,1.4-6.1,2.3-9,.9-2.8,1.5-5.7,2-8.9.1.3.2.6.3.8,0,0,0,0,0-.1.4,1,.5,2,.7,3,.5,2.5.7,5.1.4,7.6,0,1-.2,2-.2,3,0,.6.2,1,.6,1.4.4.4,1.1.5,1.8.3,1.4-.4,2.1-1.5,2.7-2.7.2-.5.4-1,.7-1.7,0,.2.1.5.2.7,0,0,0-.1,0-.2.2,1.8,0,3.4-.7,5-.7,1.7-1.7,3.2-2.9,4.6-.4.5-.9,1-1.1,1.6-.2.4-.2.8,0,1.1,0,0,.1.1.2.2.2,0,.5,0,.7,0,1.2-.3,2.4-.8,3.4-1.4,1.4-.9,2.6-2,3.7-3.2,0,0,0,0,0,0,0,0,0-.1.1-.2,0,0,0,0,0,0,0,0,.1,0,0,0,0,0,0,0,0,0,0,0,0,0,0,.1,0,0,0,0,0,0,0,.1,0,.3-.1.4,0,0,.1-.1.2-.2,0,0,.1-.1.2-.2,0,0,0,0,0,0,0,0,0,0,0,.1-.8,2.6-2.3,4.6-4.1,6.5-.9.9-1.8,1.7-2.8,2.5-.8.6-1.2,1.3-1.4,2.3,0,.9-.3,1.7-.6,2.6,0,0,0,0,0-.1,0-.3.2-.5,0-.8,0,.3-.2.6-.2.9,0,0,0,0,0,0,0,0,0,0,0,0,0,.3,0,.5-.2.9-.2-.3,0-.6,0-.9,0,0,0,0,0,0,0-.4,0-.7,0-1.1,0,0,0,0,0,0-.5.5-.8,1.2-1.4,1.6-.2.2-.4.5-.6.5-.2.2-.5.4-.7.6,0-1.1.1-2.1-.3-3.2,0,0,0,0,0,0-.1.1-.2.3-.3.4-.3.4-.6.7-.9,1.1-.5.5-1,.9-1.7,1.3,1.7-5.3,2.6-10.7,1.3-16.2,0,0,0,0,0,0,0,.1,0,.2,0,.3,0,0,0,.1,0,.2,0,1.9-.4,3.7-.8,5.6-.7,3.1-2,6-3.7,8.6-1.3,2-2.8,4-3.7,6.2-.5,1.1-.9,2.1-1.1,3.3.1-.6.3-1.3.5-1.9-.4,1.1-.8,2.2-1,3.4,0,0,0,0,0,0,0,.4,0,.8,0,1.2,0,0,0,0,0,0,0,.2.1.4,0,.4-.2,0-.1-.2-.1-.4,0,0,0,0,0,0,0-.4,0-.8,0-1.2,0,0,0,0,0,0,.2-2,.7-3.9,1.6-5.7.2-.4.4-.8.6-1.2,0-.2.2-.4,0-.6-.2-.2-.4-.1-.6,0,0,0-.1,0-.2.1,0,0-.2.2-.3.2-.2.2-.3.4-.6.6,0-1,0-2,.1-2.9,0,0,0,0,0,0,0,0,0,.1-.1.2,0,0-.1.2-.2.3-.5,1.1-.9,2.2-1.1,3.3-.6,3.3-.4,6.5.3,9.8,0,0,0,0,0,0,0,.2,0,.5.1.7-.3-.2-.4-.4-.5-.6,0,0,0,0,0,0,.2,2,.7,3.8,1.5,5.6,0,0,0,.1.1.2,0,.3.3.5.3.8,0,0,0,0,0,.1,0,0,0,0,0,0,0,0,0,0,0,0,0,0,0,0,0,.1.3.5.7.9.7,1.5,0,2.5,0,5,0,7.4,0,.1,0,.3-.1.5-.1-.2-.2-.4-.3-.6-1.6-3.5-4.2-6-7.8-7.4-3.3-1.2-6.8-1.2-10.2-.8-3.7.4-7.3,1.5-10.9,2.4-3.8,1-7.7,1.9-11.6,2.1-1.9,0-3.7.1-5.6-.4-.4-.1-.5-.2-.3-.7,1.3-2.8,2.6-5.6,3.9-8.4,1.9-4.2,3.9-8.3,5.8-12.6.5-1.2,1.2-1.7,2.5-1.6,4,.2,7.9-.4,11.7-1.6,2.8-.9,5.6-1.7,8.5-2.1.6,0,1-.2.9-.9-1.8.1-3.6.4-5.3.9-2.5.7-5,1.5-7.5,2.1-3,.7-6.2.9-9.3.7-.6,0-1.2,0-1.6.5-1.2,1.3-2.6,2.5-4,3.7-.6.5-1.3,1-2.1,1.1-1,0-1.8.5-2.3,1.4-1.4,2.6-3,5.1-4.5,7.6-2.6,4.2-5.1,8.4-7.7,12.7-1.2,2-2.4,3.9-3.6,5.9-1,1.6-.6,2.9.9,3.9.3.2.7.3,1.1.5,1.4.5,2.9.4,4.4.4,4.5-.1,8.9-.7,13.2-1.5,5.3-1,10.6-2.3,15.9-3.5,3.5-.8,7.1-1.5,10.7-1.5,1.7,0,3.4.2,4.9,1,.7.4,1.3.9,1.4,1.9,0,.6.4,1.1.8,1.6.9.9,2.1,1.2,3.3,1.4,2.7.5,5.5.7,8.2.4,1.5-.2,3-.3,4.4-.9,1.1-.4,2.1-1.1,2.2-2.3.1-1.1.7-1.6,1.5-2,.9-.5,1.9-.6,2.8-.7,3.1-.5,6.2-.2,9.3.5,4.3.9,8.6,1.9,12.9,2.9,2.7.6,5.3,1.2,8,1.6,3.4.6,6.8.9,10.2,1.2,1,0,2,.2,3,0,0-.5.5-.8.6-1.4,0-.3.2-.1.3,0,0,0,0,.1,0,.2,0,0,0,0,0,0,.3.4.3.9.9,1.1.5,0,1-.2,1.4-.4,2.1-.8,2.6-2.5,1.4-4.3ZM58.5,33.8c-1.1,1.6-1.6,3.4-1.6,5.4,0,.7-.3,1.3-.5,2-.5,2-.7,4-1,6-.4-.2-.5-.6-.6-.9-.9-2.6-1.1-5.3-.3-8,.5-1.9,1.3-3.7,2.7-5.2.6-.6,1.2-1.1,2-1.4,0,.8-.2,1.5-.6,2.2ZM86.2,27c0,0,0,0,0,0,0,0,0,0,0,0ZM77.3,41.2c0,.1,0,.2,0,.3,0-.1,0-.2,0-.3ZM65.8,51.8s0,0,0,0c0,0,0,0,0,0,.9-2.8,2.7-4.6,5.3-5.8,0,.9-.4,1.7-.7,2.7,1.4-.8,2.3-2,3.1-3.3,0,0,0,0,0,0,0-.2.2-.5.3-.7,0,0,0,0,0,0,0,0,0-.1,0-.2,0,0,0,0,0,.2,0,0,0,0,0,0,0,.3,0,.5-.2.7,0,0,0,0,0,0-.6,2.2-3.4,4.8-4.6,5.3,0-1.1.6-2.1,1-3.1-1.3.4-3.1,2.2-4.1,4.3,0,0,0,0,0,0,0,0,0,0,0,0,0,.3,0,.5-.3.7-.1-.3,0-.5.1-.8ZM65.6,53c0,0,0-.2,0-.4.2.1.1.2,0,.4ZM65.5,53s0,0,0,0c0,0,0,0,0,.1,0,0,0,0,0,0ZM62.4,53.2s0,0,0-.2c0-.1,0-.2,0-.3,0,.1,0,.3,0,.4,0,.1,0,.1,0,0ZM62.5,52.6c0-.2,0-.4.1-.7,0,0,0-.1,0-.2,0,.1,0,.2,0,.3,0,.2,0,.4,0,.5ZM23.5,48.2c.1.2,0,.3-.1.4,0-.1,0-.3.1-.4ZM23.4,48.6s0,0,0,0c0,0,0,0,0,0,0,0,0,0,0,0,0,0,0,0,0,0,0,0,0,0,0,0ZM23.1,49s0,0,0,0c0,0,0-.2,0,0,0,0,0,0,0,0,0,.3-.2.6-.4.9,0,0,0,0-.1,0,.1-.3.2-.6.4-.8ZM22.8,49.9c0,0,0,.1,0,.1,0,0,0,0,0-.2,0,0,0,0,.1,0ZM57,68.4s0,0,0,0c0,0,0-.1,0,0ZM39.5,67.5c2.8-.7,5.7-1.2,8.6-1.3,2.9,0,5.6.3,8.2,1.7,0,0,0,0,0,0,0,0,0,0,0,0,.1,0,.2,0,.2,0,0,0,0,0,0,0,.2,0,.4,0,.3.3-.1.2-.3,0-.5-.1,0,0,0,0,0,0,0,0,0,0,0,0-.1,0-.1,0-.2,0,0,0,0,0,0,0-3.3-1.5-6.7-1.6-10.2-1.4-4.4.4-8.5,1.6-12.7,2.8-3.2.9-6.5,1.7-9.8,2.1-3,.4-6,.6-9.1.3-.5,0-1-.2-1.5-.4-.6-.3-.7-.7-.5-1.3,1.3-2.6,2.5-5.2,3.8-7.8,0-.1,0-.5.3-.3.2.1,0,.3,0,.5-1.1,2.4-2.3,4.7-3.4,7.1-.3.7-.2,1,.5,1.3.8.4,1.7.5,2.6.6,4.7.2,9.3-.5,13.9-1.6,3.1-.7,6.1-1.6,9.2-2.4ZM46.8,67.7c0,0-.1,0-.2,0,0,0,0,0,0,0-.2,0-.4,0-.6,0,0,0,0,0,0,0-.6.1-1.2.2-1.8.3.5-.4,1.1-.3,1.8-.5,0,0,0,0,0,0,.2,0,.3,0,.6,0,0,0,0,0,0,0,0,0,.1,0,.2,0,0,0,0,0,0,0,0,0,0,0,0,0,.6-.2,1.2,0,1.8-.1,0,0,0,0,0,0,0,0,0,0,0,0,.4,0,.8,0,1.3,0,0,0,0,0,0,0,0,0,0,0,0,0,.4,0,.8,0,1.2.2-.5,0-.8,0-1.2,0,0,0,0,0,0,0,0,0,0,0,0,0-.5,0-.9,0-1.4,0,0,0,0,0,0,0-.6,0-1.2,0-1.8,0,0,0,0,0,0,0,0,0,0,0,0,0ZM39.9,69s-.1,0-.1-.1c0-.2.1-.2.3-.1,0,0,0,0,0,0,0-.1,0-.2.1-.2,1.2-.2,2.4-.6,3.7-.6-.7.4-1.5.4-2.3.6-.4.1-.8.2-1.2.3,0,0-.2,0-.3,0,0,.2-.1.2-.2.2ZM14.3,73.7c-.9,0-1.9-.2-2.7-.5-.6-.2-.9-.6-.8-1.3,1.2,1.3,2.8,1.4,4.3,1.4,3.8.2,7.5-.4,11.2-1.1,3.7-.8,7.4-1.9,11-2.9.7-.2,1.5-.4,2.3-.6.3.4-.1.3-.2.3-1.1.3-2.2.6-3.3.9-3.2.9-6.3,1.8-9.5,2.5-4.1.8-8.1,1.4-12.3,1.2ZM21.2,74.5c-.2.3-.4.3-.7.3-.1,0-.4,0-.2-.1.2-.1.5-.1.8-.2ZM20.2,74.8c-1,.2-2,.3-3,.3,0,0,0,0,0,0-.9,0-1.8,0-2.8,0,0,0,0,0,0,0-1.3,0-2.7,0-3.9-.5-.4-.2-.8-.4-1-1,1.5,1.2,3.1,1.3,4.8,1.4,0,0,0,0,0,0,0,0,0,0,0,0,.9,0,1.8,0,2.8,0,0,0,0,0,0,0,1-.2,2.1-.3,3.1-.4,0,0,0,.1,0,.2ZM10.8,71.3c0-.1,0-.2.2-.2,0,0,0,.1,0,.2,0,0-.1.1-.2,0ZM11.2,70.7c0-.4.2-.6.3-.9.2.2,0,.3,0,.5-.1.2-.1.3-.3.4ZM11.9,69c.1-.1,0-.3.3-.4,0,.5-.3.7-.5,1.1,0-.3,0-.5.2-.7ZM12.3,68.6c0-.5.3-.8.4-1.2,0,0,0,0,0,0,.3-.7.6-1.4,1-2.1,0,0,0,0,0,0,1.4-3,2.9-6,4.4-8.9.3-.6.6-1.2.9-1.8,0,0,0,0,0,0,0-.3.2-.5.4-.8,0,0,0,0,.1,0,0,.3-.2.6-.3.9,0,0,0,0,0,0-1,2.1-2,4.2-3,6.2-.7,1.5-1.5,2.9-2.2,4.4,0,0,0,0,0,0-.3.8-.7,1.5-1.1,2.3,0,0,0,0,0,0,0,.4-.2.7-.5,1.1ZM28.6,68.9s0,0,0,0h0c.2-.2.5-.2.9-.3-.3.3-.6.4-.9.4,0,0,0,0,0,0,0,0,0,0,0,0-.1,0-.3,0-.4,0,0,0,0,0,0,0,0,0,0,0,0,0,0,0,0,0,0,0,.1-.1.3,0,.5-.1ZM28.1,69c-.1.2-.4.1-.6.2.1-.3.4-.2.6-.2ZM27,69.2s0,0,0,0c0,0,0,0-.1,0-.6,0-1.2.3-1.8.2.6-.2,1.2-.3,1.9-.3ZM19.2,69.8c1.7,0,3.5,0,5.2-.2,0,0,0,0,0,0,0,0,.2-.1.2,0,0,.1,0,.1-.2.2,0,0,0,0,0,0-2.1.4-4.2.5-6.3.4-.9,0-1.8-.2-2.7-.5-.4-.1-.7-.3-.8-.9,1.4,1,2.9,1,4.4,1.1ZM17.2,61.6c0,0,0,.2-.2.1-.1,0-.1-.2,0-.3.2-.4.3-.7.5-1.1,0,0,0,0,.2.1,0,.4-.3.7-.4,1.1ZM17.5,60.4c0-.1.2,0,.2,0,0,0-.1,0-.2,0ZM18.1,59.8s0,0,0,0c0,.1,0,.2,0,.3,0,0,0,.3-.3.2-.2-.1,0-.2,0-.4,0,0,0-.1.1-.2,0,0,0,0,0,0,0,0,0,0,0,0,.7-1.4,1.3-2.8,2-4.2h.2c-.7,1.5-1.3,2.9-2,4.3ZM20.1,55.3s0,0,0,0c0,0-.1,0,0,0ZM20.5,54.7c0,.1,0,.2,0,.3,0,0,0,0,0,0,0,.1,0,.3-.2.2-.1,0,0-.2,0-.3,0,0,0,0,0,0,0-.1,0-.2,0-.3,0,0,0,0,0,0,0,0,0,0,0,0,0-.1,0-.2.1-.1,0,0,0,0,0,.2,0,0,0,0,0,0,0,0,0,0,0,0ZM22.6,50c0,.5-.2.8-.4,1.1,0,0,0,0,0,0,0,0,0,0,0,0-.2.5-.4,1-.7,1.5,0,0,0,0,0,0,0,0,0,0,0,0-.3.6-.5,1.2-.8,1.8,0,0-.1,0-.2,0,.3-.6.6-1.2.9-1.8,0,0,0,0,0,0,.1-.5.4-1,.7-1.5,0,0,0,0,0,0,0-.4.2-.7.5-1.1ZM21.7,49.7s0,0,0,0c0,0,0,0,0,0ZM21.3,50.2s0,0,0,0c0,0,0-.1,0-.2,0,0,0,0,0,0,0,0,0,0,0,0,0,0,0,0,0,.1,0,0,0,0,0,0,0,0,0,.2,0,.2,0,0,0,0,0,0,0,.4-.2.6-.5.9-.1-.4.2-.6.3-.9ZM20.3,52.3s0,0,0,0c0-.4.3-.7.6-1.2,0,.6-.3.9-.5,1.3,0,0,0,0,0,0,0,0,0,0,0,0,0,0,0,.1,0,.2,0,0,0,0,0,0-.1.5-.3.9-.6,1.3,0,0,0,0-.1,0,.2-.4.4-.8.6-1.3,0,0,0,0,0,0,0,0,0,0,0-.2ZM57,74.4c-.4.4-.8.9-1.3,1-.5.1-.9-.5-1.3-.8-1.9-1.1-4-1.6-6.1-1.6-3.6-.1-7,.6-10.5,1.3-4.8,1-9.6,2.3-14.4,3.3-3.3.7-6.5,1.2-9.9,1.4-1.9.1-3.9.3-5.8,0-.1,0-.3,0-.4,0-1.6-.4-2.1-1.4-1.4-2.9.6-1.2,1.3-2.5,2-3.7,2.1-3.9,4.3-7.8,6.4-11.7,1.7-3.1,3.4-6.2,5.2-9.3.2-.3.3-.6.8-.7-.1.6-.5,1-.7,1.4-2.7,5-5.4,10-8,15-1,1.9-2.1,3.9-3.2,5.8-.3.6-.6,1.3-.7,2-.2.8,0,1.4.8,1.9,1.5.7,3.1.6,4.6.7,5.4.1,10.6-.7,15.8-1.9,3.2-.8,6.3-1.6,9.5-2.4,3.4-.8,6.9-1.5,10.4-1.5,3,0,5.8.4,8.3,2.1.6.4.6.4,0,.9ZM57.1,70.7s0,0,0,0c0,0,0,0,0,0,0,0-.1,0-.2,0,0,0,0,0,0,0-.3-.2-.7-.2-1-.5-.1.1-.2,0-.3,0-3-1.2-6.2-1.2-9.3-.9-4.1.4-8,1.5-11.9,2.6-2.5.7-5,1.3-7.5,1.9,0,0-.2,0-.4,0,0,0-.1.1-.3.1,0,0,0,0,0,0-1,.3-2,.5-3.1.7,0,0,0,0,0,0-.6.2-1.2.3-1.8.3.5-.3,1.2-.3,1.8-.5,0,0,0,0,0,0,1-.3,1.9-.5,3-.7,0,0,0,0,0,0,0,0,0,0,0,0,.1,0,.3-.2.4,0,0,0,0,0,0,0,.6-.3,1.2-.4,1.7-.5,3.8-1,7.7-2.1,11.5-3.1,3.5-.9,7-1.5,10.7-1.3,1.7,0,3.3.4,4.9,1,.3.1.5.2.7.4,0,0,0,0,0,0,.4,0,.7.3,1,.4,0,0,0,0,0,0,0,0,.1,0,.2,0,0,0,0,0,0,0,0,0,0,0,0,0,.2,0,.3.1.4.3-.2.1-.3,0-.5-.2ZM57.7,70.9c.3,0,.4.2.6.3-.3,0-.4,0-.6-.3ZM58.3,71.3s0,0,.1,0c0,0,0,0,0,0,0,0,0,0,0,0,0,0,0,0,0,0ZM58.4,71.4c0,0,.1,0,.1.1,0,0-.1,0-.2,0,0,0,0,0,0,0ZM58.5,71.5s0,0,.1,0c0,0,0,0-.1,0,0,0,0,0,0,0ZM58.6,71.6s0,0,0,0c0,0,0,0,0,0,0,0,0,0,0,0ZM58.6,69.8s0,0,0,0c-.4-.3-.8-.6-1.1-.9,0,0,0,0,0,0,0,0-.1,0-.2,0,0,0-.3-.1-.2-.3,0-.1.2,0,.3.1,0,0,0,0,0,0,.5.2.9.6,1.3,1,0,0,0,0,0,0,.3.1.5.3.6.6-.3,0-.5-.3-.7-.5ZM59.4,70.4s0,0,0,0c.2,0,.4.2.4.5-.2,0-.4-.2-.5-.4ZM60,71.1s0,0,0,0c0,0,0,0,0,0,0,0,0,0,0,0ZM107.2,51.2s0,0,0,0c.3.3.5.7.6,1.1,0,0,0,0,0,0,.4.7.8,1.5,1.2,2.3,0,0,0,0,0,0,1.3,2.4,2.5,4.8,3.7,7.2.5.9.9,1.9,1.4,2.9,0,0,0,0,0,.1.4.7.8,1.4,1.1,2.3,0,0,0,0,0,0,.3.3.5.7.6,1.2,0,0,0,0,0,0,0,0,.1,0,.2.2,0,0,0,0,0,0,.3.3.4.6.5,1,0,0,0,0,0,0,0,0,.1,0,.2.2,0,0,0,0,0,0,.2.2.3.4.3.8-.3-.2-.4-.5-.5-.7,0,0,0,0,0,0,0,0,0,0-.1-.2,0,0,0,0,0,0-.2-.3-.4-.6-.6-1,0,0,0,0,0,0,0,0,0,0-.1-.2,0,0,0,0,0,0-.3-.4-.5-.7-.6-1.2,0,0,0,0,0,0-.4-.7-.8-1.5-1.2-2.3,0,0,0,0,0,0-1-1.9-2-3.9-3-5.8-.7-1.4-1.4-2.8-2.1-4.3,0,0,0,0,0-.1-.5-.7-.8-1.5-1.2-2.3,0,0,0,0,0,0-.3-.3-.4-.7-.6-1.1,0,0,0,0,0,0-.2-.3-.4-.6-.4-1,.2.2.4.5.5.9ZM116.9,70.9s0,0,.1,0c0,0,0,0,0,0,.1,0,.3.2.1.3,0,0-.1,0-.2-.2,0,0,0,0,0,0,0,0,0,0,0-.1ZM117.2,71.9c.2.5,0,1-.7,1.3-.8.3-1.7.5-2.6.5-3.6.2-7.2-.3-10.8-.9-5-.9-9.8-2.4-14.7-3.7-.2,0-.4-.1-.7-.2,0,0,0,0,0,0-1-.2-1.9-.4-3-.6,0,0,0,0,0,0,0,0-.2,0-.3,0,0,0,0,0,0,0-1,0-2-.2-3.1-.4,0,0,0,0,0,0,0,0,0,0,0,0-1.2,0-2.4,0-3.6-.1,1.2-.1,2.4-.1,3.6,0,0,0,0,0,0,0,0,0,0,0,0,0,1,0,2,.2,3,.3,0,0,0,0,0,0,0,0,.2,0,.3,0,0,0,0,0,0,0,1,0,2,.4,3,.5,0,0,0,0,0,0,1.9.3,3.6.9,5.4,1.4,4.7,1.3,9.3,2.5,14.2,3,2.3.2,4.6.5,6.8.2,1.1-.1,2.3-.3,3-1.3ZM105.5,74.4c-.1,0-.3,0-.5,0,0,0,0,0,0,0,0,0,0,0,0,0-.2,0-.5,0-.7,0,0,0,0,0,0,0-2.2-.3-4.3-.8-6.4-1.3-4.1-1-8.2-2.3-12.3-3.2-3.3-.7-6.7-1-10-.5-1,.1-2,.4-3,.7,0,0-.1,0-.2,0-.6.3-1.2.6-1.8.9.5-.5,1-.8,1.7-1.1,0,0,0,0,0,0,1.7-.8,3.4-1.1,5.3-1.2,3.2-.2,6.3.3,9.4,1,3.9.9,7.8,2.1,11.6,3.1,1.8.5,3.7.9,5.6,1.3,0,0,0,0,0,0,.2,0,.4,0,.7,0,0,0,0,0,0,0,.1,0,.3,0,.4,0,0,0,0,0,0,0,1.2.1,2.4.3,3.6.5,0,0,0,0,0,0,1.7,0,3.4.2,5.1.2,0,0,0,0,0,0,.2,0,.4,0,.7,0,0,0,0,0,0,0,.4-.1.9-.2,1.3-.3.7-.1,1.4-.4,2-.8,0,0,0,0,0,0,0-.1.1-.3.2-.2.1,0,0,.2-.1.3,0,0,0,0,0,0-.4.7-1.1.8-1.8,1-.5.1-1,.1-1.5.1,0,0,0,0,0,0-.2,0-.4,0-.7,0,0,0,0,0,0,0-1.7.2-3.4,0-5.1-.1,0,0,0,0,0,0-1.2,0-2.3-.3-3.6-.4,0,0,0,0,0,0,0,0,0,0,0,0ZM106.5,49.9s0,0,0,0c0,0-.1-.2-.2-.3.1,0,.2,0,.2.2ZM106.3,49.6s0,0,0,0,0,0,0,0c0,0,0,0,0,0ZM104.5,48.3c0,0-.2-.2-.3-.4.3.1.3.3.3.4ZM104.6,48.7s0,0,0,0c0,0,0-.1-.1-.2,0,0,0,0,0,0,0,0,0,0,0,0,0,0,0,0,0,0,0,0,.1,0,.2.2,0,0,0,0,0,0,0,0,0,0,0,.1,0,0,0,0-.1,0ZM104.9,49.3c0-.2-.1-.3,0-.4.3.3.5.7.5,1.2-.3-.2-.4-.5-.5-.7ZM109.4,58.5s0,0,0,0c-.3-.4-.5-.9-.7-1.4,0,0,0,0,0,0,0,0,0,0,0,0-.7-1.4-1.4-2.8-2-4.2,0,0,0,0,0-.1-.5-.8-.9-1.6-1.1-2.6.4.8.8,1.6,1.2,2.4,0,0,0,0,0,.1.8,1.4,1.5,2.8,2.2,4.3,0,0,0,0,0,0,0,0,0,0,0,0,.2.4.5.8.7,1.2,0,0,0,0,0,0,0,0,.1.1.2.2,0,.3.5.6.2.8-.2.1-.3-.5-.5-.7ZM103.7,69.5s0,0,0,0c.7,0,1.4,0,2.1.2,0,0,0,0,0,0,0,0,0,0,0,0,.1,0,.2,0,.3,0,0,0,0,0,0,0,1.6,0,3.1,0,4.7-.2.8-.1,1.6-.3,2.2-.9,0,.5-.3.7-.6.8-.8.4-1.7.5-2.5.5-1.2,0-2.5,0-3.7,0,0,0,0,0,0,0,0,0,0,0,0,0-.1,0-.3,0-.5,0,0,0,0,0,0,0,0,0,0,0,0,0-.7,0-1.3-.1-2-.2,0,0,0,0,0,0-.1,0-.3,0-.3,0,0-.2.2,0,.3,0ZM103.3,69.4c-.4.2-.4.2-1.1,0-.3,0-.7-.1-1.1-.2-.2,0-.3,0-.4,0,.8-.1,1.6.1,2.6.2ZM100.5,69.1c-.1,0-.2,0-.3,0,0-.2.2,0,.3,0ZM99.2,68.7c.1,0,.3,0,.2.2,0,.1-.2,0-.4,0-.2-.1-.4,0-.5-.3.2-.2.4,0,.6,0ZM80.6,66.2c3.9.2,7.7,1.2,11.5,2.2,4.5,1.2,9,2.3,13.6,2.8,2.3.3,4.6.4,6.9.1.6,0,1.1-.2,1.7-.5.6-.3.7-.6.4-1.2-1.5-3.1-3-6.1-4.4-9.2,0,0,0,0,0-.2,0,0,0,0,0-.1-.1-.2-.2-.3-.3-.6,0,0,0,0,0,0,0,0,0,0-.1-.1,0,0,0,0,0,0,0,0,0,0,0,0,0-.2.2-.2.3,0,0,.2.2.4.3.6,0,0,0,0,0,0,1.2,2.3,2.3,4.6,3.5,6.8.5,1,1,2,1.5,3,.4.8.2,1.3-.6,1.6-.7.3-1.4.4-2.1.4-3.9.1-7.7-.3-11.5-1-4.3-.8-8.4-2.1-12.6-3.1-3.4-.9-6.9-1.4-10.4-1.2-2.2.1-4.4.5-6.4,1.6,0,0,0,0-.2-.2,2.8-1.7,5.9-2.1,9.1-1.9ZM68.1,71s0,0,0,.1c0,0,0,0,0-.1,0,0,0,0,0,0,0,0,0,0,0,0,0,0,0,0,0,0ZM68.8,70.3s0,0,0,0c0,0,0,0,0,.1,0,0,0,0,0,0,0,.3-.3.4-.5.6,0-.3.1-.4.3-.6,0,0,0,0,0,0,0,0,0,0,0-.2,0,0,0,0,0,0,.1-.2.3-.3.4-.5,0,0,0,0,0,0,.3-.5.8-.8,1.3-1.1,0,0,0,0,0,0,0-.1.2-.2.3-.3,0,0,0,0,0,0,0,0,0,0,0,0,.1-.1.2-.2.4-.3,0,0,0,0,0,0,0,0,0,0,0,0,0,0,0,0,0,0,0,0,0,0,.1.1,0,0,0,0,0,.1,0,0,0,0,0,0,0,0,0,0,0,0,0,.1-.2.2-.4.2,0,0,0,0,0,0,0,.1-.2.2-.3.3,0,0,0,0,0,0,0,0,0,0,0,0-.4.4-.9.7-1.3,1.1,0,0,0,0,0,0,0,.2-.2.3-.4.5ZM69.2,71.8s0,.1,0,0h0ZM69.3,71.8s0,0,0,0c0,0,0,0,0-.1,0,0,0,0,0,0,0,0,0,0,0,.1ZM69.4,71.6s0,0,0-.1c0,0,0,0,0,0,0,0,0,0-.1.1ZM69.9,71.3s0,0,0,0c0,0,0,0,0,0,0,0,0,0,0,0,0,0,0,0-.2,0,0,0,0,0,0-.1,0,0,0,0,0,0,0,0,0,0,0,0,0,0,0,0,0,0,.1-.2.3-.4.7-.5-.1.3-.3.4-.6.5ZM120.9,78.8c-1.2.3-2.5.3-3.7.3-5.8-.2-11.5-1.3-17.2-2.6-4.6-1.1-9.2-2.3-13.9-3-3-.5-6-.7-8.9,0-1.2.3-2.3.6-3.4,1.3-.2.1-.4.2-.6.4-.5.6-1,.4-1.5,0-.3-.4-.7-.6-1.1-1,1.1-.8,2.2-1.4,3.5-1.8,2.8-.9,5.6-.8,8.5-.5,2.9.3,5.7.9,8.5,1.7,4.4,1.1,8.8,2.3,13.3,3.1,4.3.7,8.6,1.2,13,.8.7,0,1.4-.1,2.1-.4.9-.4,1.2-1.1,1.1-2-.2-1.5-1.1-2.7-1.7-4-1.8-3.3-3.5-6.5-5.3-9.8-1.8-3.3-3.5-6.6-5.3-9.9-.1-.2-.3-.4-.2-.7.4.1.6.4.7.7,1.7,3.1,3.5,6.3,5.2,9.4,2,3.6,3.9,7.1,5.8,10.7.8,1.5,1.6,2.9,2.4,4.4,0,.1.2.3.2.4.6,1.4.1,2.3-1.4,2.7Z"/>
  <path class="st0" d="M57.4,58.3c-3.5-1.4-7.1-1.4-10.8-.8-.3,0-.4.2-.3.4,0,.3.4.1.6.1,4-.6,8-.4,11.7,1.4,0,0,0,0,0,0,0,0,.2,0,.2.1,0,0,0,0,0,0,0-.1,0-.1,0-.2-.4-.4-.8-.7-1.4-.9Z"/>
  <path class="st0" d="M55.6,56.6c-.6-.1-1.2-.3-1.8-.4-2.5-.3-4.9-.3-7.4.3-.2.7.3.4.5.4,2.3-.4,4.6-.5,6.9-.1,1,.2,1.9.4,3,.7-.4-.5-.7-.8-1.2-.9Z"/>
  <path class="st0" d="M53.3,53.9c-2.1-.2-4.2,0-6.2.3-.2,0-.3.1-.3.3,0,.3.3.1.4.1,1.2-.2,2.4-.3,3.7-.3,1.1,0,2.2,0,3.3.2-.2-.3-.4-.6-.8-.6Z"/>
  <path class="st0" d="M54.3,55.1c-1.5-.3-3.1-.3-4.7-.2-.9,0-1.8.1-2.7.3-.3,0-.4.1-.4.4,0,.3.3.1.4.1,1.7-.2,3.4-.4,5.1-.3,1,0,1.9.2,3,.3-.2-.4-.4-.6-.8-.6Z"/>
  <path class="st0" d="M52.5,52.8c-1.8-.2-3.6,0-5.4.3-.3,0-.4.3,0,.5,2-.3,3.9-.4,5.9-.3-.1-.3-.3-.5-.5-.5Z"/>
  <path class="st0" d="M58.9,62.7c-3.6-2.1-7.5-2.5-11.6-2-.4,0-.8.1-1.2.2-.2,0-.4.1-.3.4,0,.3.3.2.4.2,1.7-.3,3.4-.3,5.2-.2,3.7.1,7.1,1.3,9.8,4,.2.2.5.5.7.7.2-.5,0-.8-.3-1.1-.8-.8-1.6-1.5-2.6-2.1Z"/>
  <path class="st0" d="M49.9,47.9c-.6,0-1.1.2-1.7.2-.3,0-.6,0-.5.4,0,.3.3,0,.5,0,.6,0,1.2-.1,1.8-.2.2,0,.5.1.5-.2,0-.4-.3-.3-.6-.2Z"/>
  <path class="st0" d="M47.8,47.6c0,.2.2.1.3,0,.4,0,.9-.1,1.3-.2.2,0,.4,0,.5,0,.1,0,.2,0,.2-.2,0-.2-.1-.2-.2-.2-.7,0-1.3.2-2,.3-.2,0-.2.2-.2.3Z"/>
  <path class="st0" d="M61.4,63.4c-1.8-1.8-4-2.9-6.5-3.6-2.9-.7-5.7-.6-8.6-.2-.3,0-.4.2-.4.4,0,.3.3.2.4.1,1.9-.3,3.8-.3,5.7-.2,2.7.2,5.1.9,7.4,2.4.9.6,1.7,1.3,2.5,2.2.2-.6-.2-.8-.4-1.1Z"/>
  <path class="st0" d="M46.5,58.6c-.3,0-.4.1-.4.4,0,.3.3.1.5.1,2.1-.3,4.1-.4,6.3-.2,3.5.4,6.6,1.7,9.1,4.3.2-.4,0-.7-.3-.9-1.4-1.4-3.1-2.5-5-3.1-3.3-1.2-6.7-1.1-10.2-.6Z"/>
  <path class="st0" d="M82,13.3c.8-.5,1.5-1,1.9-1.9.2-.4.6-.6,1-.7,1.8-.1,3.1-1.2,4.3-2.5.9-.9,1.2-2.1,2-3,.3-.4.4-.9.5-1.4.2-1,.6-1.9,1.1-2.7.4-.6.8-.5,1.1.1.1.3.2.6.2,1,.4,3.8,0,7.5-2,11,0,.1-.2.3,0,.4.2.2.3,0,.4-.2.7-.7,1.3-1.5,1.8-2.3,2.1-3.2,2.6-6.5,1.2-10.1-.1-.3-.3-.6-.3-1-2,0-4,0-6,0-.8,1.8-1.8,3.4-3.1,4.9-.3.3-.5.6-.6,1,0,.4-.3.7-.5,1-.7.7-1.3,1.5-2,2.2-.7.7-1.5,1.4-1.6,2.5,0,.4-.2.8-.5,1.1-.3.3-.6.6-.9.9-.6.7-.8,1.5-.8,2.6.7-1.3,1.7-2.2,2.7-2.9ZM82.4,10.9c.2-.1.2,0,.2.2,0,.2-.2.4-.4.5-.3-.3,0-.6.2-.7Z"/>
  <path class="st0" d="M48.1,44.9c0,.2.2.1.3.1.3,0,.7-.1,1-.2.1,0,.4,0,.4-.2,0-.3-.3-.2-.5-.2-.4,0-.7.1-1,.1-.2,0-.3,0-.3.3Z"/>
  <path class="st0" d="M49.8,43.1s0-.1,0-.2c0,0,0-.2-.2-.1-.4,0-.9,0-1.3.4.5.3.9,0,1.4,0Z"/>
  <path class="st0" d="M48.1,45.9c.5,0,1-.1,1.5-.2.2,0,.4,0,.3-.3,0-.3-.3-.1-.4-.1-.4,0-.8.2-1.2.2-.3,0-.4.1-.3.4Z"/>
  <path class="st0" d="M47.9,46.7c0,.2.2.1.3,0,.6,0,1.1-.2,1.7-.2.2,0,.2,0,.2-.3-.7-.2-1.3,0-2,.1-.1,0-.2.2-.2.3Z"/>
  <path class="st0" d="M50.8,49.7c-.4,0-.9,0-1.3.1-.6,0-1.2.2-1.8.2-.2,0-.3,0-.3.3,0,.2.1.2.3.2,1.1-.2,2.1-.3,3.1-.3.1,0,.4.1.4-.2,0-.2-.1-.3-.4-.3Z"/>
  <path class="st0" d="M51.6,51.7c-.9,0-1.9.1-2.9.2-.5,0-1,.1-1.5.2-.2,0-.3.2-.3.4,0,.2.2.1.4,0,.5,0,1.1-.1,1.6-.2,1.1-.2,2.2-.1,3.3-.2,0-.4-.3-.5-.6-.5Z"/>
  <path class="st0" d="M48.3,44c0,.3.2.1.3.1.3,0,.5,0,.8-.1.2,0,.5,0,.5-.3,0-.4-.3-.1-.5-.1-.3,0-.5,0-.8.1-.2,0-.3.1-.3.3Z"/>
  <path class="st0" d="M50.2,50.8c-.9,0-1.8.2-2.7.3-.2,0-.3.2-.3.4,0,.2.2.1.3,0,1.3-.2,2.6-.3,3.8-.3.4,0,.2-.2.1-.4-.4,0-.9,0-1.3,0Z"/>
  <path class="st0" d="M50.4,48.8c-.4,0-.9,0-1.4.1-.5,0-.9.2-1.3.2-.2,0-.2.2-.2.3,0,.3.2.2.3.2.9-.1,1.8-.3,2.6-.3.1,0,.3,0,.3-.2,0-.2-.1-.3-.3-.3Z"/>
  <path class="st0" d="M79.9,42.9c-.4,0-.9-.1-1.3-.2-.1,0-.2,0-.3.2,0,.2.1.2.2.2.4,0,.7.1,1.1.2.2,0,.3.2.4,0,0-.2,0-.3-.2-.4Z"/>
  <path class="st0" d="M101.5,57.5c-4,0-7.9-.8-11.8-1.8-1.2-.3-2.4-.6-3.6-.9-.1,0-.3-.1-.4,0,0,.1,0,.3.2.4.1,0,.2,0,.4,0,2,.5,4.1,1.1,6.2,1.6.4,0,.7.1,1,.2,2.7.6,5.4,1,8.1.9.2,0,.5.2.5-.2,0-.3-.2-.3-.5-.3Z"/>
  <path class="st0" d="M101.1,56.4c-3.9,0-7.6-.7-11.3-1.7-1.4-.4-2.8-.7-4.2-1.1,0,.4.1.6.5.6.8.2,1.5.4,2.3.6.9.2,1.7.5,2.6.7,3.3.8,6.7,1.5,10.1,1.5.2,0,.5.2.5-.2,0-.3-.2-.4-.5-.4Z"/>
  <path class="st0" d="M102.8,61.1c-4.7,0-9.2-1.1-13.8-2.3-.9-.2-1.8-.4-2.6-.6,0,.4.1.6.5.7,1.8.4,3.6.9,5.4,1.4,3.5.9,6.9,1.6,10.5,1.5.2,0,.5.2.5-.2,0-.3-.2-.4-.5-.4Z"/>
  <path class="st0" d="M102.4,59.9c-2.6,0-5-.3-7.6-.8-2.9-.7-5.7-1.4-8.6-2.1,0,.3,0,.5.4.6,1.7.4,3.5.9,5.2,1.3,3.5.9,7,1.6,10.6,1.5.2,0,.5.2.5-.2,0-.3-.2-.4-.5-.4Z"/>
  <path class="st0" d="M100.6,55.3c-1.6,0-3.2,0-4.7-.3-3.2-.5-6.2-1.4-9.4-2.2-.3,0-.6-.2-.8-.2-.1,0-.3-.1-.3.1,0,.1,0,.3.2.4.1,0,.2,0,.3,0,3.1.7,6.2,1.7,9.4,2.2,2,.3,3.9.5,5.9.4,0-.4-.2-.6-.6-.5Z"/>
  <path class="st0" d="M102.1,58.6c-.1,0-.3,0-.4,0-1.6,0-3.2,0-4.8-.3-3.3-.5-6.6-1.5-9.9-2.3-.3,0-.6-.1-1-.2,0,.3,0,.5.4.6,3.9.9,7.8,2.2,11.8,2.6,1.3.1,2.6.2,3.9.2.1,0,.4.1.4-.2,0-.2,0-.4-.3-.4Z"/>
  <path class="st0" d="M99.5,52c-3.8.1-7.4-.8-11.1-1.7-1.1-.3-2.2-.6-3.3-.9-.1,0-.3-.2-.4,0,0,.2,0,.3.2.4,0,0,.2,0,.2,0,1.2.3,2.4.6,3.6.9.4.1.7.2,1.1.3,3.2.8,6.4,1.4,9.6,1.4.2,0,.5.2.5-.2,0-.3-.3-.3-.5-.3Z"/>
  <path class="st0" d="M99.8,53c-2.2,0-4.4-.2-6.6-.7-2.6-.5-5.2-1.3-7.7-1.9-.2,0-.4-.2-.5,0-.1.3.2.4.4.4,2.8.7,5.6,1.5,8.5,2.1,2.1.4,4.3.6,6.5.5,0-.5-.2-.5-.6-.5Z"/>
  <path class="st0" d="M80.8,49.1c-.6,0-1.1-.2-1.7-.3-1.3-.1-2.5-.2-3.8-.1-.3,0-.6.1-.7.5,2.1-.2,4.1,0,6.1.3.1,0,.3.2.4-.1,0-.2,0-.3-.3-.3Z"/>
  <path class="st0" d="M100.3,54.1c-3.4,0-6.7-.6-10.1-1.5-1.7-.4-3.4-.9-5-1.3,0,.4,0,.5.4.6,1.8.5,3.6.9,5.4,1.4,3.1.8,6.2,1.3,9.4,1.3.2,0,.5.2.5-.2,0-.3-.2-.3-.5-.3Z"/>
  <path class="st0" d="M78.1,43.5c-.1,0-.1.2-.1.3,0,.2.1.1.2.2.3,0,.7,0,1,.1.4,0,.7.1,1.1.2,0-.1,0-.2,0-.3-.2-.2-1.9-.5-2.1-.4Z"/>
  <path class="st0" d="M44.4,45.6c0-.3-.3,0-.4,0-.5.1-1.1.3-1.6.4-2.6.7-5.2,1.5-7.9,1.9-1.3.2-2.7.3-4,.3-.2,0-.5,0-.4.3,0,.3.3.1.4.1,2.6,0,5.2-.3,7.8-1,.2,0,.3,0,.4-.1,1.8-.5,3.6-1,5.5-1.4.2,0,.4,0,.4-.3Z"/>
  <path class="st0" d="M80.4,46.4c-.2,0-.4,0-.6,0-.9-.1-1.8-.3-2.7-.3-.2,0-.5,0-.5.3,0,.3.3.1.4.2.6,0,1.2.1,1.8.2.5,0,.9.1,1.3.2.1,0,.3,0,.3-.1,0-.1,0-.3-.2-.3Z"/>
  <path class="st0" d="M80.2,45.5c-.7-.1-1.5-.2-2.3-.3-.3,0-.7-.1-.7.3,1,.1,2,.3,3,.4.1,0,.4.2.4-.1,0-.2-.2-.2-.3-.3Z"/>
  <path class="st0" d="M76.6,46.9c-.3,0-.5,0-.5.4,1.5,0,3,.2,4.4.4.4,0,.2-.2.1-.4-1.4-.4-2.7-.4-4-.5Z"/>
  <path class="st0" d="M80.5,48.2c-1.5-.2-3-.4-4.4-.4-.4,0-.6.1-.7.5,1.1,0,2.2,0,3.3.1.7,0,1.5.3,2.2.2,0-.3-.2-.3-.4-.4Z"/>
  <path class="st0" d="M80.1,44.6c-.7,0-1.4-.2-2.2-.3-.2,0-.3,0-.3.2,0,.2.1.2.3.2.2,0,.4,0,.7,0,.5,0,1,.2,1.5.2.1,0,.3.1.4,0,0-.2,0-.3-.3-.3Z"/>
  <path class="st0" d="M101.6,64.7c-3.6-.3-7-1.1-10.4-2-1.3-.3-2.7-.7-4-1,0,.4,0,.6.4.7,2.6.6,5.2,1.3,7.8,1.9,3.1.7,6.1,1.2,9.3,1.1,0-.5-.2-.6-.6-.6-.8,0-1.6,0-2.4,0Z"/>
  <path class="st0" d="M103.8,63.6c0,0-.1,0-.2,0-2.5,0-4.9-.3-7.4-.8-3-.6-5.9-1.5-8.9-2.2-.2,0-.4-.2-.4,0,0,.2,0,.4.3.5.9.2,1.8.4,2.8.7,2.9.8,5.8,1.5,8.7,1.9,1.7.2,3.4.4,5.1.4.1,0,.4.1.4-.2,0-.2,0-.4-.4-.4Z"/>
  <path class="st0" d="M103.2,62.3c-3,0-5.9-.4-8.9-1.1-2.6-.6-5.1-1.3-7.7-1.9,0,.3,0,.5.4.6,2.8.6,5.5,1.5,8.3,2.1,2.6.5,5.2.9,7.9.9.2,0,.5.2.5-.1,0-.3-.2-.4-.5-.4Z"/>
  <path class="st0" d="M99.2,51c-1.9,0-3.9-.2-5.8-.5-2.8-.5-5.5-1.4-8.3-2.1-.2,0-.4-.2-.5,0,0,.3,0,.4.4.4.5.1,1.1.3,1.7.4,2.3.6,4.5,1.2,6.7,1.6,2.1.4,4.1.6,6.2.5,0-.4-.1-.5-.5-.5Z"/>
  <path class="st0" d="M81.9,60.8c-3.4-.5-6.8-.4-10.1.8-1.9.7-3.6,1.8-4.9,3.4-.2.3-.3.5-.2.9,1.1-1.3,2.4-2.3,3.9-3.1,2-1,4.1-1.5,6.3-1.6,1.8,0,3.6,0,5.4.2.1,0,.4.2.5-.1,0-.3-.1-.4-.4-.4-.2,0-.3,0-.5,0Z"/>
  <path class="st0" d="M98.8,50c-2.4,0-4.7-.3-7-.8-2.3-.5-4.5-1.2-6.8-1.7-.1,0-.4-.3-.5,0,0,.2.2.3.4.4.4,0,.8.2,1.2.3,2.2.5,4.2,1.2,6.4,1.6,2.3.5,4.6.7,6.9.7,0-.5-.2-.5-.6-.5Z"/>
  <path class="st0" d="M81.8,56.4c-.1,0-.2,0-.4,0-2.1-.3-4.2-.4-6.4-.1-1,0-2,.3-2.9.6-2,.6-3.8,1.6-5.3,3.1-.3.3-.3.3-.2.8,3.1-3.1,6.9-4.1,11.1-4.1,1.3,0,2.7.1,4,.4.1,0,.4.2.5-.1,0-.2,0-.4-.3-.4Z"/>
  <path class="st0" d="M81.6,55.2c-.8-.1-1.5-.2-2.3-.3-3-.2-6,0-8.7,1.2-1.5.7-3,1.4-3.9,2.9,0,0,0,.2,0,.2,0,0,0,0,.2-.1,2.8-2.6,6.1-3.6,9.8-3.8,1.6,0,3.2.1,4.8.3.1,0,.3.2.4,0,0-.2,0-.4-.3-.4Z"/>
  <path class="st0" d="M82,58.6c-.9,0-1.8-.2-2.7-.3-3.4-.2-6.7.2-9.7,2-1,.6-1.9,1.2-2.6,2-.2.2-.4.5-.3.9,1.8-2,4-3.2,6.6-3.9,2.9-.7,5.8-.7,8.7-.3.2,0,.5.2.5-.2,0-.3-.2-.3-.4-.4Z"/>
  <path class="st0" d="M82.2,59.7c-3.6-.6-7.2-.6-10.7.8-1.8.7-3.3,1.7-4.6,3.2-.2.2-.4.5-.2.9,1.9-2.2,4.3-3.5,7.1-4.2,2.1-.5,4.2-.5,6.4-.4.7,0,1.3.2,1.9.2.1,0,.4.2.4-.1,0-.2,0-.4-.3-.4Z"/>
  <path class="st0" d="M44.7,43.6c-.7.2-1.3.3-1.9.5-3.2.9-6.5,1.8-9.9,2.1-.7,0-1.3,0-2,0-.2,0-.3,0-.4.3,0,.3.2.2.3.2,1.3,0,2.6,0,3.9-.2,3.3-.5,6.4-1.5,9.6-2.3.3,0,.4-.2.3-.5Z"/>
  <path class="st0" d="M44.6,44.5c-1.2.3-2.3.6-3.5.9-2.5.7-5,1.4-7.6,1.6-1,.2-1.9.1-2.9.1-.3,0-.4,0-.4.3,0,.3.2.2.4.2.5,0,1,0,1.5,0,4.2-.2,8.1-1.5,12.2-2.6.3,0,.3-.2.3-.5Z"/>
  <path class="st0" d="M81.4,54.2c-1.3-.2-2.6-.3-3.9-.4-2.8,0-5.5.5-8,1.7-.9.4-1.1.7-1.5,1.4,0,0,.2,0,.2,0,1.6-1.2,3.4-1.8,5.3-2.2,2.6-.5,5.2-.4,7.8,0,.1,0,.4.3.4-.1,0-.3-.2-.3-.4-.4Z"/>
  <path class="st0" d="M62.6,61.8s0,0,0,0c0,0,0,0,0,0,.2.2.4.5.4.9,0,0,0,0,.1.1,0,0,0,0,0-.1,0-.3-.3-.6-.4-.9,0,0,0-.2-.1-.2-.2-.4-.4-.7-.5-1,.1.4.2.7.4,1.1,0,0,0,0,0,0,0,0,0,0,.1,0Z"/>
  <path class="st0" d="M81.9,57.5c-3.1-.4-6.2-.6-9.2.3-2.2.6-4.2,1.7-5.8,3.3-.2.2-.5.5-.3.9.6-.7,1.3-1.3,2.1-1.8.9-.6,1.7-1,2.7-1.4,3.4-1.3,6.8-1.4,10.4-.8.2,0,.5.2.5-.1,0-.3-.2-.4-.4-.4Z"/>
  <path class="st0" d="M98.4,49.1c-1.3,0-2.6,0-3.9-.2-2.4-.3-4.8-1-7.2-1.6-.9-.3-1.9-.5-2.8-.7-.1,0-.3-.2-.3,0,0,.2,0,.3.2.4.2,0,.3,0,.5.1,1.4.4,2.7.7,4.1,1.1,3.1.8,6.2,1.5,9.4,1.4.2,0,.5.2.5-.2,0-.3-.3-.3-.6-.3Z"/>
  <path class="st0" d="M81.4,53.2c-.1,0-.3,0-.4,0-1-.1-1.9-.2-2.9-.3-2.5-.2-5,.2-7.4,1.1-.5.2-.8.4-1.1.9,0,0,0,0,.1,0,2-.9,4-1.4,6.1-1.5,1.8,0,3.7,0,5.5.3,0,0,.3.2.3,0,0-.2,0-.3-.2-.4Z"/>
  <path class="st0" d="M97.4,46.3c-3.1,0-6.2-.6-9.2-1.5-1.4-.4-2.8-.7-4.1-1.1-.1,0-.3-.2-.3,0,0,.2,0,.3.2.3.1,0,.2,0,.4,0,1.2.3,2.4.6,3.7,1,.5.1.9.2,1.3.3,2.7.7,5.4,1.3,8.2,1.2.2,0,.5.1.5-.2,0-.3-.3-.2-.5-.2Z"/>
  <path class="st0" d="M97.9,47.1c-.2,0-.3,0-.5,0-1.9,0-3.7-.2-5.5-.6-2.5-.5-5-1.3-7.5-1.9-.1,0-.4-.3-.5,0,0,.2.1.3.4.4,1.1.3,2.3.6,3.5.9,1.2.3,2.3.6,3.4.9,2.2.5,4.4.8,6.7.8.1,0,.4.1.4-.1,0-.2-.1-.4-.4-.4Z"/>
  <path class="st0" d="M98.1,48.1c-2.7,0-5.3-.4-7.9-1.1-1.9-.5-3.8-1-5.7-1.5-.1,0-.3-.2-.4,0,0,.2,0,.3.3.4,2.5.6,5,1.4,7.6,1.9,2.1.5,4.1.7,6.2.6.1,0,.4.2.4-.1,0-.3-.2-.3-.5-.3Z"/>
  <path class="st0" d="M80.9,50.1c-.6,0-1.2-.2-1.8-.2-1.7-.2-3.2-.2-4.8,0-.4,0-.6.2-.7.5,2.5-.3,4.9-.2,7.3.2.1,0,.3.2.4,0,0-.2,0-.4-.3-.4Z"/>
  <path class="st0" d="M81.1,52.1c-3.1-.5-6.1-.6-9.1.2-.4.1-.7.4-1,.9.4-.1.6-.2.9-.3,1.2-.3,2.4-.5,3.6-.6,1.9-.1,3.7,0,5.6.3.1,0,.4.3.5-.1,0-.2-.2-.3-.4-.4Z"/>
  <path class="st0" d="M80.9,51.1c-.8-.1-1.5-.3-2.3-.3-1.9-.1-3.7-.2-5.5.3-.3,0-.6.2-.6.6,2.8-.6,5.6-.5,8.4,0,.1,0,.4.3.4,0,0-.3-.2-.3-.4-.4Z"/>
</svg>