<?xml version="1.0" encoding="UTF-8"?>
<svg id="Camada_1" data-name="Camada 1" xmlns="http://www.w3.org/2000/svg" viewBox="0 0 1121.58 1089.99">
  <defs>
    <style>
      .cls-1 {
        fill: #017158;
        stroke-width: 0px;
      }
    </style>
  </defs>
  <path class="cls-1" d="M0,577.64c40.7-12.31,91.95-19.25,155.55-19.88-30.4-9.43-73.27-15.16-127.48-17.54-15.78-12.02-25.91-26.13-23.39-45.61,54.6-7.27,113.92-10.35,174.26-4.68,67.98,5.15,136.22,22.43,204.67,49.12,65.8,23.36,127.09,57.73,178.94,98.24,40.36-38.68,102.91-68.43,173.09-94.73,35.29-17.64,80.63-30.79,129.82-42.1,93.41-14.54,178.69-19.15,252.62-5.85-1.46,19.06-8.17,33.54-21.05,44.44-58.27,3.15-106.54,8.45-126.31,19.88,49.45-2.96,99.87,4.22,150.87,17.54-8.44,46.16-35.83,83.42-70.26,118.71-165.39-59.31-328.49-59.42-489.36-1.83-167.15-61.02-330.67-53.87-490.03,1.83-34.06-30.35-56.43-70.94-71.93-117.54ZM494.13,577.05c-114.56-95.93-247.1-158.49-458.46-160.23-3.59,20.1-1.22,37.45,8.19,53.8,169.5-19.39,314.87,30.81,450.27,106.43ZM1077.3,470.63c9.41-16.35,11.78-33.7,8.19-53.8-211.36,1.74-343.89,64.3-458.46,160.23,135.4-75.62,280.77-125.82,450.27-106.43ZM668.39,525.59c131.55-79.95,258.95-128.54,380.1-129.82,11.8-17.15,12.27-33.18,0-47.95-146.4,14.37-268.7,83.65-380.1,177.77ZM73.93,347.82c-12.27,14.77-11.8,30.8,0,47.95,121.15,1.28,248.55,49.87,380.1,129.82-111.4-94.12-233.7-163.4-380.1-177.77ZM361.82,306.81c4.52,54.48,20.53,106.04,59.51,151.78.19.22.41.42.65.59,58.04,40.71,104.91,79.9,137.81,117.2,1.22,1.38,3.29,1.55,4.72.39l142.47-116.67c37.27-31.79,42.69-24.54,64.41-87.07,1.18-3.4-3.02-6.08-5.6-3.57l-27,26.34c-2.57,2.5-6.78-.14-5.61-3.53,31.94-92.82,17.83-173.27-46.97-220.85-.18-.13-.37-.25-.58-.34-17.33-8.04-34.19-23.49-40.42-31.18-.14-.18-.26-.36-.37-.56-10.79-20.16-12.32-35.91-7.34-54.81.83-3.16-2.76-5.56-5.37-3.6-22.24,16.76-33.37,39.97-17.75,77.7.87,2.11-.52,4.48-2.79,4.7-3.12.31-7.33-.45-12.73-2.4-.41-.15-.8-.38-1.13-.67-34.35-30.17-44.66-80-23.09-155.89.86-3.02-2.45-5.51-5.11-3.84-118.1,74.43-188.69,174.72-173.27,324.83.3,2.91-2.98,4.85-5.35,3.14-9.5-6.84-17.03-14.81-22.78-23.8-1.93-3.02-6.59-1.47-6.29,2.1ZM434.74,999.51h18.71v4.86h-12.8v8.93h11.9v4.82h-11.9v13.74h-5.91v-32.35ZM477.28,1017.51h-12.19v9.49h13.63v4.86h-19.55v-32.35h18.83v4.86h-12.92v8.32h12.19v4.82ZM483.89,999.95c2.63-.43,5.93-.7,9.43-.7,6.07,0,10.21,1.26,13.19,3.74,3.15,2.56,5.07,6.42,5.07,11.91,0,5.8-1.98,10.09-5.04,12.87-3.25,2.92-8.37,4.4-14.65,4.4-3.44,0-6.05-.18-7.99-.42v-31.8ZM489.8,1027.36c.83.14,2.09.16,3.29.16,7.67.04,12.24-4.22,12.24-12.41.03-7.14-4.08-11.25-11.5-11.25-1.85,0-3.17.17-4.03.35v23.16ZM534.78,1017.51h-12.19v9.49h13.63v4.86h-19.55v-32.35h18.83v4.86h-12.92v8.32h12.19v4.82ZM541.4,999.95c2.25-.41,5.53-.7,8.96-.7,4.64,0,7.8.78,9.98,2.61,1.78,1.48,2.79,3.72,2.79,6.5,0,4.17-2.83,7.01-5.89,8.08v.14c2.34.89,3.71,3.12,4.51,6.26,1.03,4.05,1.91,7.76,2.56,9.02h-6.07c-.5-.94-1.27-3.61-2.18-7.63-.93-4.22-2.46-5.58-5.82-5.66h-2.98v13.3h-5.87v-31.91ZM547.26,1014.24h3.5c4.01,0,6.48-2.11,6.48-5.33,0-3.52-2.48-5.17-6.3-5.19-1.88,0-3.07.15-3.67.3v10.22ZM575.53,1022.72l-2.76,9.15h-6.11l10.38-32.35h7.53l10.51,32.35h-6.35l-2.93-9.15h-10.28ZM584.83,1018.25l-2.55-7.97c-.62-2-1.16-4.21-1.64-6.08h-.11c-.47,1.9-.97,4.14-1.54,6.06l-2.5,7.99h8.34ZM621.79,1030.91c-1.4.7-4.48,1.46-8.4,1.46-10.26,0-16.52-6.45-16.52-16.3,0-10.64,7.43-17.06,17.32-17.06,3.89,0,6.64.79,7.83,1.43l-1.28,4.71c-1.51-.69-3.66-1.27-6.31-1.27-6.59,0-11.34,4.12-11.34,11.9,0,7.13,4.16,11.65,11.27,11.65,2.39,0,4.89-.47,6.45-1.17l.98,4.66ZM614.11,1031.64l-1.32,2.49c1.82.39,3.44,1.65,3.44,3.76,0,3.1-2.75,4.19-5.37,4.19-1.36,0-2.81-.3-3.8-.88l.83-2.59c.71.38,1.72.66,2.69.66s1.85-.39,1.85-1.31c0-1.11-1.29-1.67-3.76-1.94l2.14-4.39h3.31ZM633.61,1022.72l-2.76,9.15h-6.11l10.38-32.35h7.53l10.51,32.35h-6.35l-2.93-9.15h-10.28ZM632.78,997.55c-.1-3.55,1.29-5.56,3.5-5.56,1.18,0,2.03.43,2.96.96.79.46,1.53.9,2.2.9.77,0,1.14-.41,1.29-1.98h2.81c.08,3.73-1.16,5.38-3.54,5.38-1.17,0-2.09-.39-3.03-.89-.87-.48-1.47-.89-2.14-.89s-1.08.75-1.2,2.08h-2.86ZM642.91,1018.25l-2.55-7.97c-.62-2-1.16-4.21-1.64-6.08h-.11c-.47,1.9-.97,4.14-1.54,6.06l-2.5,7.99h8.34ZM685.37,1015.37c0,10.83-6.57,17.03-15.48,17.03s-14.93-6.98-14.93-16.46,6.28-16.95,15.4-16.95,15,7.13,15,16.38ZM661.2,1015.82c0,6.6,3.33,11.85,8.99,11.85s8.94-5.31,8.94-12.08c0-6.11-3.03-11.87-8.93-11.87s-9,5.46-9,12.11ZM35.88,1057.11v32.35h-5.91v-32.35h5.91ZM68.59,1087.99c-2.09.75-6.11,1.8-10.42,1.8-5.46,0-9.62-1.37-12.68-4.31-2.89-2.75-4.55-7-4.54-11.88.03-10.26,7.33-16.81,18.03-16.81,3.98,0,7.08.81,8.59,1.52l-1.31,4.76c-1.76-.78-3.93-1.38-7.36-1.38-6.89,0-11.75,4.08-11.75,11.6s4.53,11.7,11.23,11.7c2.14,0,3.71-.28,4.47-.64v-8.08h-5.7v-4.64h11.43v16.36ZM74.6,1057.56c2.25-.41,5.53-.7,8.96-.7,4.64,0,7.8.78,9.98,2.61,1.78,1.48,2.79,3.72,2.79,6.5,0,4.17-2.83,7.01-5.89,8.08v.14c2.34.89,3.71,3.12,4.51,6.26,1.03,4.05,1.91,7.76,2.56,9.02h-6.07c-.5-.94-1.28-3.61-2.18-7.63-.93-4.22-2.46-5.58-5.82-5.66h-2.98v13.3h-5.87v-31.91ZM80.47,1071.84h3.5c4.01,0,6.48-2.11,6.48-5.33,0-3.52-2.48-5.17-6.3-5.19-1.88,0-3.07.15-3.67.3v10.22ZM120.02,1075.11h-12.19v9.49h13.63v4.86h-19.55v-32.35h18.83v4.86h-12.92v8.32h12.19v4.82ZM134.04,1057.11h5.91v20.99c0,8.93-4.32,11.9-10.73,11.9-1.64,0-3.7-.3-4.96-.76l.73-4.77c.94.32,2.23.59,3.65.59,3.36,0,5.41-1.52,5.41-7.14v-20.79ZM152.9,1080.32l-2.76,9.15h-6.11l10.38-32.35h7.53l10.51,32.35h-6.35l-2.93-9.15h-10.28ZM162.2,1075.85l-2.55-7.97c-.62-2-1.16-4.21-1.64-6.08h-.11c-.47,1.9-.97,4.14-1.54,6.06l-2.5,7.99h8.34ZM210.1,1088.51c-1.4.7-4.48,1.46-8.4,1.46-10.26,0-16.52-6.45-16.52-16.3,0-10.64,7.43-17.06,17.32-17.06,3.89,0,6.64.79,7.84,1.43l-1.28,4.71c-1.51-.69-3.66-1.27-6.31-1.27-6.59,0-11.34,4.12-11.34,11.9,0,7.13,4.16,11.65,11.27,11.65,2.39,0,4.89-.47,6.45-1.17l.98,4.66ZM215.09,1057.56c2.25-.41,5.53-.7,8.96-.7,4.64,0,7.8.78,9.98,2.61,1.78,1.48,2.79,3.72,2.79,6.5,0,4.17-2.83,7.01-5.89,8.08v.14c2.34.89,3.71,3.12,4.51,6.26,1.03,4.05,1.91,7.76,2.56,9.02h-6.07c-.5-.94-1.28-3.61-2.18-7.63-.93-4.22-2.46-5.58-5.82-5.66h-2.98v13.3h-5.87v-31.91ZM220.96,1071.84h3.5c4.01,0,6.48-2.11,6.48-5.33,0-3.52-2.48-5.17-6.3-5.19-1.88,0-3.07.15-3.67.3v10.22ZM248.32,1057.11v32.35h-5.91v-32.35h5.91ZM254.97,1083.02c1.91,1.1,4.81,2.06,7.82,2.06,3.77,0,5.88-1.77,5.88-4.42,0-2.44-1.64-3.88-5.73-5.37-5.34-1.9-8.76-4.76-8.76-9.4,0-5.3,4.43-9.29,11.45-9.29,3.51,0,6.07.75,7.76,1.6l-1.41,4.77c-1.17-.61-3.43-1.54-6.46-1.54-3.75,0-5.34,2-5.34,3.9,0,2.48,1.87,3.65,6.19,5.3,5.62,2.15,8.32,4.97,8.32,9.62,0,5.2-3.92,9.72-12.27,9.72-3.42,0-6.98-.97-8.75-2.06l1.31-4.89ZM286.2,1062.08h-9.24v-4.97h24.48v4.97h-9.33v27.39h-5.91v-27.39ZM308.17,1080.32l-2.76,9.15h-6.11l10.38-32.35h7.53l10.51,32.35h-6.35l-2.93-9.15h-10.28ZM307.34,1055.15c-.1-3.55,1.29-5.56,3.5-5.56,1.18,0,2.03.43,2.96.96.79.46,1.53.9,2.2.9.77,0,1.14-.41,1.29-1.98h2.81c.08,3.73-1.16,5.38-3.54,5.38-1.17,0-2.09-.39-3.03-.89-.87-.48-1.47-.89-2.14-.89s-1.08.75-1.2,2.08h-2.86ZM317.48,1075.85l-2.55-7.97c-.62-2-1.16-4.21-1.64-6.08h-.11c-.47,1.9-.97,4.14-1.54,6.06l-2.5,7.99h8.34ZM342.15,1057.56c2.25-.41,5.53-.7,8.96-.7,4.64,0,7.8.78,9.98,2.61,1.78,1.48,2.79,3.72,2.79,6.5,0,4.17-2.83,7.01-5.89,8.08v.14c2.34.89,3.71,3.12,4.51,6.26,1.03,4.05,1.91,7.76,2.56,9.02h-6.07c-.5-.94-1.27-3.61-2.18-7.63-.93-4.22-2.46-5.58-5.82-5.66h-2.98v13.3h-5.87v-31.91ZM348.01,1071.84h3.5c4.01,0,6.48-2.11,6.48-5.33,0-3.52-2.48-5.17-6.3-5.19-1.88,0-3.07.15-3.67.3v10.22ZM387.57,1075.11h-12.19v9.49h13.63v4.86h-19.55v-32.35h18.83v4.86h-12.92v8.32h12.19v4.82ZM394.18,1057.11h18.71v4.86h-12.8v8.93h11.9v4.82h-11.9v13.74h-5.91v-32.35ZM447.34,1072.97c0,10.83-6.57,17.03-15.48,17.03s-14.93-6.98-14.93-16.46,6.28-16.95,15.4-16.95,15,7.13,15,16.38ZM423.17,1073.42c0,6.6,3.33,11.85,8.99,11.85s8.94-5.31,8.94-12.08c0-6.11-3.03-11.87-8.93-11.87s-9,5.46-9,12.11ZM452.41,1057.56c2.25-.41,5.53-.7,8.96-.7,4.64,0,7.8.78,9.98,2.61,1.78,1.48,2.79,3.72,2.79,6.5,0,4.17-2.83,7.01-5.89,8.08v.14c2.34.89,3.71,3.12,4.51,6.26,1.03,4.05,1.91,7.76,2.56,9.02h-6.07c-.5-.94-1.27-3.61-2.18-7.63-.93-4.22-2.46-5.58-5.82-5.66h-2.98v13.3h-5.87v-31.91ZM458.27,1071.84h3.5c4.01,0,6.48-2.11,6.48-5.33,0-3.52-2.48-5.17-6.3-5.19-1.88,0-3.07.15-3.67.3v10.22ZM507.04,1076.27c-.2-4.18-.41-9.2-.39-13.61h-.13c-1.07,3.97-2.42,8.33-3.82,12.43l-4.75,14h-4.55l-4.29-13.81c-1.27-4.15-2.42-8.55-3.27-12.62h-.11c-.14,4.24-.33,9.41-.58,13.81l-.72,13h-5.51l2.15-32.35h7.77l4.22,12.99c1.16,3.82,2.2,7.66,2.97,11.27h.14c.87-3.53,1.98-7.49,3.23-11.29l4.49-12.97h7.67l1.86,32.35h-5.76l-.63-13.2ZM525.61,1080.32l-2.76,9.15h-6.11l10.38-32.35h7.53l10.51,32.35h-6.35l-2.93-9.15h-10.28ZM534.91,1075.85l-2.55-7.97c-.62-2-1.16-4.21-1.64-6.08h-.11c-.47,1.9-.97,4.14-1.54,6.06l-2.5,7.99h8.34ZM549.65,1057.56c2.63-.43,5.93-.7,9.43-.7,6.07,0,10.21,1.26,13.19,3.74,3.15,2.56,5.07,6.42,5.07,11.91,0,5.8-1.98,10.09-5.04,12.87-3.25,2.92-8.37,4.4-14.65,4.4-3.44,0-6.05-.18-7.99-.42v-31.8ZM555.56,1084.96c.83.14,2.09.16,3.29.16,7.67.04,12.24-4.22,12.24-12.41.03-7.14-4.08-11.25-11.5-11.25-1.85,0-3.17.17-4.03.35v23.16ZM588.2,1080.32l-2.76,9.15h-6.11l10.38-32.35h7.53l10.51,32.35h-6.35l-2.93-9.15h-10.28ZM597.5,1075.85l-2.55-7.97c-.62-2-1.16-4.21-1.64-6.08h-.11c-.47,1.9-.97,4.14-1.54,6.06l-2.5,7.99h8.34ZM628.66,1080.32l-2.76,9.15h-6.11l10.38-32.35h7.53l10.51,32.35h-6.35l-2.93-9.15h-10.28ZM637.97,1075.85l-2.55-7.97c-.62-2-1.16-4.21-1.64-6.08h-.11c-.47,1.9-.97,4.14-1.54,6.06l-2.5,7.99h8.34ZM657.38,1089.47l-10.48-32.35h6.45l4.42,14.71c1.25,4.08,2.33,7.87,3.16,11.78h.11c.86-3.82,2.03-7.76,3.29-11.7l4.72-14.8h6.29l-11.18,32.35h-6.77ZM684.73,1057.11v32.35h-5.91v-32.35h5.91ZM698.9,1089.47l-10.48-32.35h6.45l4.42,14.71c1.25,4.08,2.33,7.87,3.16,11.78h.11c.86-3.82,2.03-7.76,3.29-11.7l4.72-14.8h6.29l-11.18,32.35h-6.77ZM724.18,1080.32l-2.76,9.15h-6.11l10.38-32.35h7.53l10.51,32.35h-6.35l-2.93-9.15h-10.28ZM733.49,1075.85l-2.55-7.97c-.62-2-1.16-4.21-1.64-6.08h-.11c-.47,1.9-.97,4.14-1.54,6.06l-2.5,7.99h8.34ZM748.22,1057.11h5.91v27.4h13.31v4.96h-19.22v-32.35ZM777.8,1057.11v32.35h-5.91v-32.35h5.91ZM784.45,1083.02c1.91,1.1,4.81,2.06,7.82,2.06,3.77,0,5.88-1.77,5.88-4.42,0-2.44-1.64-3.88-5.73-5.37-5.34-1.9-8.76-4.76-8.76-9.4,0-5.3,4.43-9.29,11.45-9.29,3.51,0,6.07.75,7.76,1.6l-1.41,4.77c-1.17-.61-3.43-1.54-6.46-1.54-3.75,0-5.34,2-5.34,3.9,0,2.48,1.87,3.65,6.19,5.3,5.62,2.15,8.32,4.97,8.32,9.62,0,5.2-3.92,9.72-12.27,9.72-3.42,0-6.98-.97-8.75-2.06l1.31-4.89ZM815.69,1062.08h-9.24v-4.97h24.48v4.97h-9.33v27.39h-5.91v-27.39ZM837.66,1080.32l-2.76,9.15h-6.11l10.38-32.35h7.53l10.51,32.35h-6.35l-2.93-9.15h-10.28ZM846.96,1075.85l-2.55-7.97c-.62-2-1.16-4.21-1.64-6.08h-.11c-.47,1.9-.97,4.14-1.54,6.06l-2.5,7.99h8.34ZM871.63,1057.56c2.63-.43,5.93-.7,9.43-.7,6.07,0,10.21,1.26,13.19,3.74,3.15,2.56,5.07,6.42,5.07,11.91,0,5.8-1.98,10.09-5.04,12.87-3.25,2.92-8.37,4.4-14.65,4.4-3.44,0-6.05-.18-7.99-.42v-31.8ZM877.54,1084.96c.83.14,2.09.16,3.29.16,7.67.04,12.24-4.22,12.24-12.41.03-7.14-4.08-11.25-11.5-11.25-1.85,0-3.17.17-4.03.35v23.16ZM933.14,1072.97c0,10.83-6.57,17.03-15.48,17.03s-14.93-6.98-14.93-16.46,6.28-16.95,15.4-16.95,15,7.13,15,16.38ZM908.98,1073.42c0,6.6,3.33,11.85,8.99,11.85s8.94-5.31,8.94-12.08c0-6.11-3.03-11.87-8.93-11.87s-9,5.46-9,12.11ZM948.14,1057.56c1.89-.39,5.31-.7,8.63-.7,4.34,0,7.05.56,9.26,2.05,2,1.23,3.34,3.31,3.34,6.09,0,2.97-1.85,5.69-5.38,6.97v.12c3.42.87,6.55,3.56,6.55,8.01,0,2.87-1.24,5.11-3.1,6.68-2.31,1.99-6.09,2.99-12.02,2.99-3.29,0-5.74-.22-7.27-.42v-31.8ZM954.01,1070.33h3.03c4.1,0,6.38-1.93,6.38-4.67,0-3.04-2.3-4.44-6.03-4.44-1.75,0-2.74.12-3.38.26v8.84ZM954.01,1085.17c.77.14,1.77.17,3.13.17,3.78,0,7.18-1.42,7.18-5.41,0-3.76-3.31-5.3-7.37-5.31h-2.94v10.55ZM975.79,1057.56c2.25-.41,5.53-.7,8.96-.7,4.64,0,7.8.78,9.98,2.61,1.78,1.48,2.79,3.72,2.79,6.5,0,4.17-2.83,7.01-5.89,8.08v.14c2.34.89,3.71,3.12,4.51,6.26,1.03,4.05,1.91,7.76,2.56,9.02h-6.07c-.5-.94-1.27-3.61-2.18-7.63-.93-4.22-2.46-5.58-5.82-5.66h-2.98v13.3h-5.87v-31.91ZM981.66,1071.84h3.5c4.01,0,6.48-2.11,6.48-5.33,0-3.52-2.48-5.17-6.3-5.19-1.88,0-3.07.15-3.67.3v10.22ZM1009.92,1080.32l-2.76,9.15h-6.11l10.38-32.35h7.53l10.51,32.35h-6.35l-2.93-9.15h-10.28ZM1019.23,1075.85l-2.55-7.97c-.62-2-1.16-4.21-1.64-6.08h-.11c-.47,1.9-.97,4.14-1.54,6.06l-2.5,7.99h8.34ZM1033.85,1083.02c1.91,1.1,4.81,2.06,7.82,2.06,3.77,0,5.88-1.77,5.88-4.42,0-2.44-1.64-3.88-5.73-5.37-5.34-1.9-8.76-4.76-8.76-9.4,0-5.3,4.43-9.29,11.45-9.29,3.51,0,6.07.75,7.76,1.6l-1.41,4.77c-1.17-.61-3.43-1.54-6.46-1.54-3.75,0-5.34,2-5.34,3.9,0,2.48,1.87,3.65,6.19,5.3,5.62,2.15,8.32,4.97,8.32,9.62,0,5.2-3.92,9.72-12.27,9.72-3.42,0-6.98-.97-8.75-2.06l1.31-4.89ZM1064.79,1057.11v32.35h-5.91v-32.35h5.91ZM1071.55,1057.11h5.91v27.4h13.31v4.96h-19.22v-32.35ZM413.79,810.35c-5.75,45.25,11.17,81.55,56.48,98.4,30.68,11.41,61.87,9.6,92.93,1.3,10.17-2.72,11.47-5.99,7.91-16.63-3.93,2.14-7.66,4.58-11.7,6.31-19.72,8.44-40.32,9.12-60.85,4.76-17.05-3.62-31.37-12.47-41.21-28-1.11-1.15-2.01-2.05-2.55-3.12-18.42-36.82-18.75-73.59,3.87-108.35,11.92-18.32,30.26-29.92,53.3-28.13,12.63.99,25.04,5.38,37.43,8.69,5.19,1.39,10.06,3.96,15.84,6.3.73-4.79,1.06-8.64,1.96-12.35,1.09-4.53-.46-7.05-4.93-7.88-11.62-2.16-23.17-5.25-34.89-6.23-21.38-1.8-41.85,2.93-61.65,11.98-30.56,15.22-47.69,39.7-51.92,72.95ZM212.05,733.93c-.02,56.7,0,113.4.03,170.1,0,2.19.25,4.38.42,7.21,6.24,0,11.96-.37,17.61.1,5.89.49,7.59-1.56,7.57-7.47-.21-55.68-.11-111.35-.14-167.03,0-3.26-.36-6.51-1.11-9.72-8.2-.03-15.85-.1-23.66.28-.36,2.48-.72,4.51-.72,6.54ZM765.12,911.89c-.09-.19-.18-.38-.4-1.34-.16-59.8-.19-118.83-.17-177.85,0-2,.51-4.01.77-6.01,0,0,.49.09,1.27.14,18.73.07,36.68.06,54.62.11,22.71.06,43.66,4.94,60.03,22.19,0,0,.36-.29.2.27,7.9,12.42,8.88,25.24,4.47,38.54-5.13,15.46-17.8,22.77-31.83,28.24-5.62,2.19-11.55,3.59-18.18,5.6,2.76,3.54,5.02,6.6,7.44,9.53,20.71,25.01,41.46,49.97,62.14,75.01,1.36,1.65,2.14,3.77,3.19,5.67,0,0,.08.1-.5.04-8.48.9-16.44,1.58-24.29,2.92-4.5.77-7.05-.58-9.61-4.26-17.71-25.5-36.11-50.52-53.22-76.41-5.76-8.72-11.9-11.74-21.88-10.97-5.89.46-8.08,1.31-7.97,7.8.42,24.13.19,48.27.2,72.41q0,8.19-7.9,8.21c-6.13.03-12.27.1-18.4.16M858.58,767.87c-.5-1.77-.93-3.56-1.51-5.3-4.37-13.03-18.34-25.42-29.78-24.98-10.35.4-20.64,2.39-30.96,3.61-3.97.47-4.79,2.81-4.72,6.39.18,9.81.08,19.63.08,29.44,0,12.43,0,24.87,0,38.76,11.49-.65,22.45-.82,33.31-1.98,24.78-2.66,37.69-20.05,33.59-45.95Z"/>
</svg>